<?xml version="1.0" encoding="UTF-8"?>
<svg id="Livello_2" data-name="Livello 2" xmlns="http://www.w3.org/2000/svg" viewBox="0 0 461.72 48.52">
  <defs>
    <style>
      .cls-1 {
        fill: #fff;
      }
    </style>
  </defs>
  <g id="LOGO_TIPOGRAFIA_ESTESA" data-name="LOGO + TIPOGRAFIA ESTESA">
    <g id="LOGO_TIPOGRAFIA_ESTESA-2" data-name="LOGO + TIPOGRAFIA ESTESA">
      <path id="MARCHIO" class="cls-1" d="M80.38,0h-27.04c-2.57,0-4.65,2.08-4.65,4.65v1.56c0,1.34-.17,2.25-.21,2.49-.63,2.2-2.64,3.81-5.04,3.81h-1.72c-2.9,0-5.25-2.35-5.25-5.25v-1.86s-.01-.09-.02-.13v-.62c0-2.57-2.08-4.65-4.65-4.65H9.31C4.17,0,0,4.17,0,9.31v29.9c0,5.14,4.17,9.31,9.31,9.31h22.49c2.57,0,4.65-2.08,4.65-4.65v-.64s.01-.09.02-.13v-1.55c0-2.9,2.35-5.25,5.25-5.25h1.72c1.02,0,1.97.3,2.78.8.05.03.09.05.14.08.02.01.04.03.07.05.12.08.23.17.34.26.04.03.08.07.12.11.05.05.1.09.15.14.5.47.9,1.04,1.19,1.67.11.27.41,1.16.47,2.56v1.17c0,.15,0,.26,0,.36v.39c0,2.57,2.08,4.65,4.65,4.65h19.73s7.31,0,7.31,0c2.57,0,4.65-2.08,4.65-4.65v-2.91c0-2.57-2.08-4.65-4.65-4.65h-21.8c-.34,0-.7-.02-1.12-.02-7.91,0-8.79-5.65-8.87-7.51v-9.03c.08-1.86.97-7.51,8.87-7.51.02,0,.04,0,.07,0h22.86c2.57,0,4.65-2.08,4.65-4.65v-2.91c0-2.57-2.08-4.65-4.65-4.65ZM36.36,28.76c-.08,1.86-.96,7.52-8.87,7.52-.42,0-.79,0-1.14.02h-10.15c-1.6,0-2.9-1.3-2.9-2.9V15.12c0-1.6,1.3-2.9,2.9-2.9h11.29c7.91,0,8.79,5.66,8.87,7.52v9.02Z"/>
      <g id="TIPOGRAFIA">
        <path class="cls-1" d="M138.37,4.29c-2.62-1.43-4.72-1.69-8.99-1.69h-16.67v43.24h16.67c5.77,0,9.38-1.3,12.73-4.47,4.2-4.15,6.3-10.24,6.3-17.7,0-9.27-3.54-16.21-10.04-19.38ZM138.3,37.55c-2.16,2.33-4.72,3.31-9.45,3.31h-10.3V7.6h11.09c3.94,0,6.17.91,8.47,3.18,2.95,2.92,4.46,7.39,4.46,13.42,0,5.71-1.44,10.31-4.26,13.36Z"/>
        <path class="cls-1" d="M179.39,39.37v-16.92c0-5.71-4.53-9.21-12.14-9.21-8.2,0-13.19,3.82-13.72,10.57h5.64c.46-4.08,2.82-5.9,7.81-5.9,4.72,0,7.09,1.82,7.09,5.51,0,2.33-.85,2.98-6.82,3.7-5.97.84-7.55,1.17-9.19,1.88-3.21,1.49-5.18,4.67-5.18,8.56,0,5.71,4.07,9.27,10.57,9.27,2.43,0,4.99-.59,6.89-1.62,1.38-.84,2.3-1.69,4.07-3.95.2,3.43,1.51,5.06,4.85,5.06.99,0,1.51-.07,3.81-.26v-4.22c-.79.2-1.05.2-1.51.2-1.51,0-2.16-.65-2.16-2.66ZM173.95,35.02c0,1.88-.46,2.79-1.97,4.34-2.17,2.01-4.66,3.05-7.48,3.05-3.87,0-6.04-1.88-6.04-5.06s2.23-4.99,7.55-5.77c4.2-.52,5.38-.91,7.94-1.75v5.19Z"/>
        <polygon class="cls-1" points="197.45 39.63 188.98 14.21 183.01 14.21 194.43 45.85 200.01 45.85 212.15 14.21 206.18 14.21 197.45 39.63"/>
        <rect class="cls-1" x="216.62" y="14.21" width="5.31" height="31.64"/>
        <rect class="cls-1" x="216.62" y="2.61" width="5.31" height="6.03"/>
        <path class="cls-1" d="M250.09,17.45c-2.69-3.17-5.38-4.47-9.38-4.47-4.27,0-7.87,1.69-10.24,4.8-2.3,3.05-3.28,6.94-3.28,12.71,0,10.18,5.12,16.47,13.52,16.47,4.2,0,6.63-1.17,9.19-4.74v3.63h5.51V2.61h-5.32v14.85ZM241.63,42.35c-5.51,0-8.66-4.54-8.66-12.64,0-7.52,3.21-12.13,8.66-12.13,2.56,0,5.18,1.36,6.5,3.37,1.31,2.01,2.17,5.51,2.17,9.14,0,7.58-3.22,12.25-8.66,12.25Z"/>
        <path class="cls-1" d="M275.5,13.11c-4.72,0-8.73,1.88-11.42,5.51-2.3,3.05-3.41,6.74-3.41,11.93,0,10.18,5.71,16.47,14.83,16.47,4.66,0,8.53-1.49,10.83-4.15,1.9-2.14,2.95-4.54,3.15-7.32h-5.91c-.52,2.07-.79,3.11-1.77,4.08-1.31,1.75-3.54,2.59-6.1,2.59-2.95,0-5.64-1.3-7.15-3.56-1.31-1.82-1.84-3.76-2.04-7.07h23.3v-2.53c0-3.31-.79-6.42-2.3-9.21-2.43-4.41-6.56-6.74-12.01-6.74ZM266.51,27.24c.46-5.71,3.74-9.34,8.79-9.34s8.47,3.63,8.73,9.34h-17.52Z"/>
        <path class="cls-1" d="M337.39,37.36c-2.3,2.85-5.64,4.47-9.58,4.47-8.6,0-14.04-6.81-14.04-17.57s5.45-17.64,14.37-17.64c6.04,0,10.5,3.43,11.88,9.21h5.77c-1.25-8.88-7.94-14.33-17.91-14.33-6.56,0-12.07,2.66-15.75,7.39-2.95,3.83-4.4,8.95-4.4,15.37,0,5.12,1.11,9.98,3.02,13.36,3.35,5.96,9.78,9.34,17.19,9.34,10.24,0,17.13-6.42,18.18-16.86h-5.84c-.59,3.56-1.31,5.38-2.89,7.26Z"/>
        <path class="cls-1" d="M365.03,12.91c-8.73,0-14.83,7.13-14.83,17.31s5.84,16.79,14.57,16.79,14.96-6.61,14.96-17.05-5.77-17.05-14.7-17.05ZM364.9,42.22c-5.71,0-8.92-4.47-8.92-12.25s3.28-12.06,8.99-12.06,8.99,4.41,8.99,12.12-3.28,12.19-9.05,12.19Z"/>
        <path class="cls-1" d="M400.22,13.37c-2.82,0-5.32.84-7.09,2.2-.72.58-1.25,1.04-2.75,2.79v-4.15h-5.38v31.64h5.31v-18.28c0-5.71,3.35-9.4,8.53-9.4,4.26,0,6.63,2.46,6.63,7.13v20.55h5.31v-22.5c0-2.14-.39-4.02-1.25-5.51-1.64-2.79-5.12-4.47-9.32-4.47Z"/>
        <path class="cls-1" d="M425.36,37.49v-19.26h4.99v-4.21h-5.18V5.91h-5.31v8.11h-4.4v4.21h4.4v21.01c0,4.74,1.97,6.68,6.69,6.68.85,0,1.64-.07,4-.26v-4.28c-.85,0-1.44.06-1.71.06-2.95,0-3.48-.58-3.48-3.95Z"/>
        <path class="cls-1" d="M461.72,29.06c0-3.31-.79-6.42-2.3-9.21-2.43-4.41-6.56-6.74-12.01-6.74-4.72,0-8.73,1.88-11.42,5.51-2.3,3.05-3.41,6.74-3.41,11.93,0,10.18,5.71,16.47,14.83,16.47,4.66,0,8.53-1.49,10.83-4.15,1.9-2.14,2.95-4.54,3.15-7.32h-5.9c-.53,2.07-.79,3.11-1.77,4.08-1.31,1.75-3.54,2.59-6.1,2.59-2.95,0-5.64-1.3-7.15-3.56-1.31-1.82-1.84-3.76-2.04-7.07h23.3v-2.53ZM438.43,27.24c.46-5.71,3.74-9.34,8.79-9.34s8.47,3.63,8.73,9.34h-17.52Z"/>
      </g>
    </g>
  </g>
</svg>