<?xml version="1.0" encoding="UTF-8" standalone="no"?>
<!DOCTYPE svg PUBLIC "-//W3C//DTD SVG 1.1//EN" "http://www.w3.org/Graphics/SVG/1.1/DTD/svg11.dtd">
<svg width="100%" height="100%" viewBox="0 0 189 72" version="1.1" xmlns="http://www.w3.org/2000/svg" xmlns:xlink="http://www.w3.org/1999/xlink" xml:space="preserve" xmlns:serif="http://www.serif.com/" style="fill-rule:evenodd;clip-rule:evenodd;stroke-linejoin:round;stroke-miterlimit:2;">
    <g transform="matrix(1,0,0,1,-203.19183,-77.9055)">
        <g transform="matrix(8.706,0,0,8.706,316.89159,149.4247)">
        </g>
        <text x="278.517px" y="149.425px" style="font-family:'Helvetica-Bold', 'Helvetica';font-weight:700;font-size:8.706px;fill:rgb(212,149,160);">LA<tspan x="289.803px 292.224px " y="149.425px 149.425px "> C</tspan>ENA</text>
        <g transform="matrix(1,0,0,1,375.4027,98.0765)">
            <path d="M0,35.381C0.613,35.44 1.225,35.313 1.766,35.063C4.824,33.645 7.56,30.587 9.15,27.659C10.139,25.837 10.953,23.506 10.537,21.445C10.381,20.677 9.958,19.96 9.232,19.641C7.49,18.875 5.366,20.492 4.206,21.711C1.708,24.338 -0.736,28.201 -1.416,31.797C-1.652,33.046 -1.801,35.208 0,35.381M-131.124,29.071C-130.052,27.677 -129.165,26.236 -128.458,24.629C-128.045,23.688 -127.803,22.736 -127.696,21.715C-127.586,20.669 -128.175,19.734 -129.235,19.503C-130.948,19.129 -133.027,20.625 -134.233,21.773C-135.581,23.055 -136.68,24.455 -137.645,26.049C-138.892,28.105 -140.577,31.573 -140.18,33.978C-140.05,34.77 -139.386,35.3 -138.59,35.201C-135.952,34.875 -132.691,31.11 -131.124,29.071M-92,23.935C-91.14,22.907 -90.55,21.727 -90.564,20.433C-90.572,19.71 -91.133,19.146 -91.879,19.249C-92.591,19.347 -93.272,19.596 -93.881,19.982C-96.913,21.908 -99.476,25.67 -100.642,29.089C-97.192,28.377 -94.224,26.594 -92,23.935M3.793,35.074C1.419,36.535 -1.761,37.331 -3.393,34.427C-3.899,33.526 -4.086,32.527 -4.223,31.498C-4.414,30.055 -4.233,28.741 -3.916,27.229C-5.168,28.74 -6.339,30.068 -7.678,31.385C-9.396,33.075 -11.22,34.939 -13.334,36.07C-14.2,36.534 -15.203,36.49 -15.972,35.851C-16.458,35.447 -16.84,34.904 -17.052,34.296C-17.743,32.314 -17.454,30.251 -16.384,28.442C-15.372,26.732 -14.179,25.217 -12.922,23.672C-12.435,23.074 -9.889,20.191 -10.945,19.615C-12.026,19.025 -14.567,21.377 -15.388,22.14C-16.982,23.622 -18.431,25.142 -19.898,26.766C-22.521,29.667 -24.943,32.627 -27.412,35.737L-31.754,36.121L-22.688,22.527C-22.268,21.81 -21.34,20.378 -21.845,19.69C-22.286,19.089 -23.677,19.693 -24.282,20.099C-25.208,20.719 -26.013,21.427 -26.814,22.214C-28.122,23.497 -29.383,24.737 -30.577,26.145C-33.089,29.107 -35.65,31.94 -38.609,34.454C-39.501,35.213 -40.42,35.855 -41.503,36.211C-43.299,36.802 -45.109,35.883 -45.677,34.104C-46.069,32.878 -45.946,31.645 -45.46,30.455C-44.316,27.648 -42.801,25.427 -41.161,22.885C-41.19,22.848 -41.222,22.826 -41.274,22.812L-45.146,27.014L-46.313,28.416C-48.07,30.527 -50.036,32.41 -52.096,34.231C-53.122,35.138 -54.201,35.923 -55.505,36.274C-57.027,36.683 -58.542,35.985 -59.222,34.603C-59.825,33.378 -59.807,32.025 -59.32,30.765C-58.947,29.803 -58.591,28.962 -58.077,28.028C-57.206,26.445 -56.017,24.58 -55.071,23.14C-55.077,23.15 -54.834,22.704 -55.093,22.911L-56.746,24.656L-59.462,27.684C-59.916,28.189 -60.249,28.761 -60.728,29.262C-62.186,30.784 -63.618,32.259 -65.176,33.68C-66.181,34.596 -67.2,35.403 -68.375,36.042C-69.329,36.561 -70.387,36.489 -71.193,35.757C-71.689,35.307 -72.032,34.717 -72.228,34.06C-72.837,32.028 -72.463,29.959 -71.331,28.165C-70.157,26.306 -68.828,24.641 -67.433,22.944C-66.967,22.378 -65.256,20.293 -65.961,19.673C-66.85,18.892 -69.268,21.044 -69.979,21.683C-71.978,23.479 -73.773,25.392 -75.571,27.405C-77.996,30.119 -80.227,32.868 -82.517,35.739L-86.539,36.124C-86.606,36.13 -86.717,36.109 -86.754,36.099C-86.79,36.089 -86.736,35.938 -86.711,35.901L-77.803,22.55C-77.352,21.873 -77.035,21.151 -76.797,20.436C-76.737,20.257 -76.842,19.858 -76.928,19.717C-77.023,19.56 -77.364,19.435 -77.606,19.445C-79.313,19.516 -81.369,21.689 -82.579,22.87C-84.193,24.443 -85.627,26.054 -87.087,27.767C-89.298,30.36 -92.394,33.637 -95.336,35.31C-97.939,36.789 -101.171,37.004 -103.095,34.292C-104.608,32.158 -104.596,29.768 -104.178,27.23C-106.472,29.919 -108.774,32.335 -111.38,34.55C-112.237,35.278 -113.135,35.876 -114.185,36.215C-115.682,36.699 -117.26,36.153 -118.029,34.791C-118.697,33.608 -118.74,32.216 -118.301,30.926C-117.858,29.626 -117.305,28.433 -116.591,27.259L-113.9,22.838C-115.241,24.047 -116.324,25.435 -117.532,26.759L-118.754,28.099L-119.791,29.347C-120.846,30.617 -124.803,34.414 -126.269,35.384C-127.151,35.967 -128.121,36.354 -129.154,36.39C-130.517,36.438 -131.46,35.536 -131.668,34.224C-131.833,33.178 -131.675,32.199 -131.491,31.058C-131.7,31.241 -131.891,31.441 -132.088,31.676C-133.716,33.613 -135.932,35.801 -138.489,36.316C-140.648,36.75 -141.881,35.343 -142.467,33.412C-143.006,31.637 -143.008,29.379 -142.62,27.647C-142.602,27.566 -142.668,27.433 -142.656,27.413C-142.645,27.394 -142.7,27.471 -142.733,27.519C-142.965,27.866 -143.835,28.624 -144.096,28.206C-144.154,28.115 -144.124,27.855 -144.045,27.754C-141.415,24.378 -137.599,20.839 -133.574,19.229C-131.67,18.467 -128.676,17.802 -127.209,19.649C-126.524,20.511 -126.685,21.518 -126.765,22.377C-126.768,22.412 -126.725,22.376 -126.64,22.329L-124.351,18.985L-120.259,18.773L-127.218,29.682L-128.607,31.97C-129.071,32.735 -129.417,33.582 -129.416,34.484C-129.415,35.005 -129.049,35.369 -128.507,35.332C-128.097,35.303 -127.637,35.149 -127.278,34.916C-126.205,34.222 -125.259,33.46 -124.322,32.571C-122.67,31.004 -121.096,29.443 -119.571,27.741L-116.289,24.077C-114.442,22.016 -112.344,20.11 -110.822,17.77L-98.344,-1.419L-94.31,-1.95L-113.502,28.399C-114.352,29.744 -115.148,31.036 -115.916,32.404C-116.206,32.921 -116.423,33.472 -116.537,34.045C-116.663,34.68 -116.285,35.399 -115.621,35.476C-114.095,35.651 -112.332,34.19 -111.25,33.213C-109.862,31.96 -108.529,30.73 -107.266,29.351L-105.086,26.971C-104.049,25.838 -103.122,24.697 -102.012,23.625C-99.322,21.027 -95.767,18.485 -91.872,18.463C-90.983,18.459 -90.148,18.697 -89.472,19.228C-87.803,20.539 -88.425,22.907 -89.666,24.379C-92.279,27.479 -97.054,29.199 -100.988,30.097C-101.222,31.197 -101.402,32.328 -101.246,33.447C-101.076,34.659 -100.121,35.499 -98.911,35.502C-97.826,35.503 -96.841,35.194 -95.892,34.69C-93.426,33.381 -90.571,30.447 -88.726,28.329L-87.362,26.764C-85.486,24.61 -83.269,22.147 -81.132,20.291C-79.904,19.225 -77.904,17.867 -76.264,18.732C-74.469,19.678 -74.88,22.412 -75.399,24.013C-75.821,25.314 -76.48,26.408 -77.119,27.709L-72.212,22.534C-70.901,21.15 -68.574,19.127 -66.737,18.606C-65.544,18.268 -64.438,18.892 -64.004,20.028C-63.591,21.11 -63.688,22.225 -64.098,23.332C-64.572,24.613 -65.204,25.799 -66.004,26.926L-68.879,30.97C-69.544,31.906 -71.052,34.147 -70.236,35.191C-69.4,36.262 -66.998,34.211 -66.269,33.572C-64.198,31.757 -62.31,29.835 -60.536,27.718C-59.337,26.286 -58.165,24.977 -56.863,23.63C-55.211,21.921 -53.564,20.28 -52.232,18.308L-49.166,13.768C-49.14,13.711 -49.09,13.642 -49.117,13.638C-49.159,13.631 -49.319,13.605 -49.378,13.604L-51.818,13.601C-51.854,13.6 -52.013,13.572 -52.001,13.542C-51.984,13.496 -51.935,13.376 -51.908,13.333L-51.51,12.716L-48.491,12.714L-44.693,6.679L-40.643,6.388L-44.446,12.452C-44.476,12.5 -44.488,12.709 -44.417,12.71L-37.488,12.723L-37.955,13.603L-45.166,13.603L-55.204,29.633L-56.128,31.22C-56.62,32.064 -57.051,32.903 -57.344,33.841C-57.547,34.49 -57.266,35.314 -56.542,35.463C-54.226,35.937 -49.372,30.405 -47.816,28.755L-46.303,27.151L-44.193,24.683L-38.919,19.062L-34.444,18.776L-40.912,28.953L-42.825,32.097C-43.178,32.678 -43.43,33.268 -43.625,33.93C-43.817,34.588 -43.421,35.425 -42.678,35.483C-40.13,35.679 -35.691,30.44 -34.008,28.659L-32.716,27.291L-30.63,24.913L-27.811,21.958C-26.561,20.648 -24.635,18.875 -22.859,18.517C-21.743,18.291 -20.688,18.729 -20.211,19.735C-19.415,21.415 -20.118,23.832 -20.87,25.431C-21.211,26.156 -21.585,26.83 -21.97,27.552L-22.02,27.645C-22.036,27.675 -22.1,27.843 -22.077,27.817L-21.924,27.642C-19.896,25.324 -16.256,21.415 -13.807,19.684C-13.17,19.233 -12.488,18.877 -11.755,18.638C-10.482,18.222 -9.243,18.894 -8.848,20.177C-8.519,21.246 -8.623,22.39 -9.038,23.467C-9.606,24.94 -10.414,26.251 -11.331,27.538L-13.919,31.171C-14.564,32.076 -15.871,34.113 -15.16,35.155C-14.309,36.403 -11.509,33.885 -10.761,33.22C-8.894,31.56 -7.227,29.797 -5.584,27.906C-4.219,26.334 -2.969,24.782 -1.454,23.349C0.217,21.768 1.993,20.399 4.062,19.394C5.816,18.542 8.18,17.929 10.002,18.755C11.951,19.639 12.546,21.737 12.283,23.723L12.259,23.905L12.235,24.06C12.038,25.347 11.502,26.496 10.857,27.616L10.792,27.727L10.726,27.842C10.283,28.613 9.802,29.322 9.255,30.026L9.174,30.131L9.091,30.235L8.993,30.359C8.851,30.537 10.1,30.809 11.302,30.415C13.002,29.858 14.414,28.753 15.534,27.357C15.836,26.979 16.105,26.656 16.561,26.79C16.669,26.821 16.722,27.209 16.643,27.32C14.572,30.197 11.861,31.953 8.138,31.426C6.796,32.845 5.416,34.075 3.793,35.074" style="fill:rgb(212,149,160);fill-rule:nonzero;"/>
        </g>
        <g transform="matrix(1,0,0,1,213.2246,94.1263)">
            <path d="M0,36.441C1.198,34.317 2.387,32.264 3.224,29.97L5.372,24.082C8.213,16.296 10.964,9.762 15.808,2.921C13.015,4.581 10.32,6.69 7.223,7.214C6.258,7.272 5.279,7.161 4.559,6.494C2.662,4.734 3.507,1.201 2.348,-0.781C0.978,-3.122 -2.723,0.658 -3.775,1.808C-5.858,4.085 -7.498,6.658 -8.833,9.444C-9.01,9.815 -9.568,10.924 -9.914,10.928C-10.284,10.931 -9.681,9.368 -9.575,9.133C-7.515,4.56 -3.957,-0.451 0.451,-2.999C2.508,-4.188 5.144,-4.6 6.575,-2.35C6.998,-1.685 7.332,-0.941 7.465,-0.144L7.936,2.678C8.089,3.593 8.398,5.314 9.65,5.064C10.249,4.944 10.83,4.801 11.415,4.525C14.586,3.028 17.356,0.78 19.399,-2.07C19.992,-2.897 20.982,-4.893 22.078,-4.376C22.454,-4.199 22.686,-3.744 22.58,-3.266C22.347,-2.203 20.606,-1.327 19.577,-0.092C18.067,1.719 16.685,6.227 16.012,8.61C12.864,19.76 7.68,29.037 0.962,38.561C4.143,36.411 6.841,33.91 9.511,31.325C11.253,29.641 12.886,27.969 14.472,26.135L23.195,16.044L32.111,5.505L36.642,0.528C37.764,-0.706 38.971,-1.761 40.302,-2.759C41,-3.282 41.769,-3.741 42.599,-3.915C43.999,-4.208 45.188,-3.23 45.314,-1.863C45.381,-1.133 45.201,-0.422 44.777,0.155C44.033,1.168 42.75,1.243 41.776,0.464C41.382,0.149 40.938,-0.271 40.408,-0.356C38.271,-0.696 29.341,10.169 27.642,12.179L17.226,24.503C15.648,26.371 14.018,28.079 12.305,29.826C8.77,33.432 5.018,36.743 1.01,39.798C0.372,40.284 -0.231,40.657 -0.911,41.032C-1.264,41.227 -1.788,41.334 -2.107,41.004C-2.27,40.836 -2.205,40.348 -2.076,40.119L0,36.441Z" style="fill:rgb(212,149,160);fill-rule:nonzero;"/>
        </g>
        <g transform="matrix(1,0,0,1,344.7601,104.4762)">
            <path d="M0,4.203C-0.654,4.509 -1.359,4.401 -1.859,4.023C-2.378,3.629 -2.643,2.968 -2.521,2.237C-2.347,1.194 -1.553,0.226 -0.548,-0.115C0.013,-0.306 0.648,-0.202 1.076,0.142C1.481,0.468 1.712,1.026 1.692,1.627C1.656,2.703 1.011,3.73 0,4.203" style="fill:rgb(212,149,160);fill-rule:nonzero;"/>
        </g>
        <g transform="matrix(1,0,0,1,258.4265,80.6115)">
            <path d="M0,25.915L0.972,21.349L1.142,21.349C3.044,24.689 6.426,28.029 10.4,28.029C14.416,28.029 16.826,26.084 16.826,22.617C16.826,14.374 1.142,15.515 1.142,5.623C1.142,0.423 5.58,-2.706 11.457,-2.706C15.346,-2.706 18.39,-1.564 20.758,0L19.701,4.692L19.532,4.692C18.052,1.522 15.177,-2.114 11.288,-2.114C7.61,-2.114 5.284,0.084 5.284,3.128C5.284,10.738 21.223,9.554 21.223,19.996C21.223,25.323 17.037,28.621 10.4,28.621C6.299,28.621 2.41,27.648 0,25.915" style="fill:rgb(212,149,160);fill-rule:nonzero;"/>
        </g>
        <g transform="matrix(1,0,0,1,286.7098,88.3905)">
            <path d="M0,10.315L11.457,10.315L5.665,-3.678L0,10.315ZM19.743,16.783C20.25,18.009 20.631,19.32 22.237,20.292L22.237,20.546L12.387,20.546L12.387,20.292C13.866,19.573 14.881,18.559 13.993,16.487L11.753,11.034L-0.296,11.034L-2.283,15.938C-3.128,18.009 -1.987,19.447 -0.55,20.207L-0.55,20.546L-6.257,20.546L-6.257,20.207C-4.481,19.362 -4.059,18.136 -3.594,16.952L7.525,-10.231L8.075,-10.231L19.743,16.783Z" style="fill:rgb(212,149,160);fill-rule:nonzero;"/>
        </g>
        <g transform="matrix(1,0,0,1,332.4526,108.9363)">
            <path d="M0,-30.777L4.397,-30.777L4.397,-30.523C3.34,-29.678 2.536,-28.367 2.536,-26.676L2.536,0L2.029,0L-19.405,-25.408L-19.405,-4.101C-19.405,-2.41 -18.602,-1.099 -17.545,-0.254L-17.545,0L-21.941,0L-21.941,-0.254C-20.8,-1.142 -20.081,-2.41 -20.081,-4.101L-20.081,-25.619C-20.081,-28.706 -20.758,-30.058 -21.815,-30.481L-21.815,-30.777L-17.46,-30.777L1.818,-7.779L1.818,-26.676C1.818,-28.367 1.141,-29.636 0,-30.523L0,-30.777Z" style="fill:rgb(212,149,160);fill-rule:nonzero;"/>
        </g>
    </g>
</svg>
