<?xml version="1.0" encoding="UTF-8" standalone="no"?>
<!DOCTYPE svg PUBLIC "-//W3C//DTD SVG 1.1//EN" "http://www.w3.org/Graphics/SVG/1.1/DTD/svg11.dtd">
<svg width="100%" height="100%" viewBox="0 0 2481 1259" version="1.1" xmlns="http://www.w3.org/2000/svg" xmlns:xlink="http://www.w3.org/1999/xlink" xml:space="preserve" xmlns:serif="http://www.serif.com/" style="fill-rule:evenodd;clip-rule:evenodd;stroke-linejoin:round;stroke-miterlimit:2;">
    <g id="Livello-1" serif:id="Livello 1" transform="matrix(4.166667,0,0,4.166667,0,0)">
        <g transform="matrix(1,0,0,1,192.2155,228.9954)">
            <path d="M0,-0.904L2.618,-0.904C3.656,-0.904 4.403,-1.068 4.859,-1.395C5.316,-1.722 5.544,-2.221 5.544,-2.891C5.544,-3.525 5.322,-4.016 4.878,-4.365C4.434,-4.713 3.743,-4.886 2.805,-4.886L0,-4.886L0,-0.904ZM0,0.294L0,5.173L-1.836,5.173L-1.836,-6.077L2.805,-6.077C4.289,-6.077 5.423,-5.804 6.206,-5.258C6.988,-4.711 7.38,-3.918 7.38,-2.876C7.38,-2.299 7.198,-1.797 6.834,-1.368C6.471,-0.94 5.941,-0.6 5.246,-0.347C5.991,-0.146 6.527,0.179 6.853,0.63C7.179,1.081 7.342,1.64 7.342,2.305L7.342,3.364C7.342,3.714 7.389,4.029 7.482,4.307C7.575,4.585 7.737,4.813 7.967,4.988L7.967,5.173L6.075,5.173C5.833,4.998 5.678,4.741 5.609,4.4C5.541,4.06 5.507,3.709 5.507,3.348L5.507,2.32C5.507,1.712 5.292,1.222 4.864,0.851C4.435,0.48 3.86,0.294 3.14,0.294L0,0.294Z" style="fill-rule:nonzero;"/>
        </g>
        <g transform="matrix(1,0,0,1,219.8522,228.1298)">
            <path d="M0,0.82L-5.572,0.82L-5.572,4.848L0.951,4.848L0.951,6.039L-7.408,6.039L-7.408,-5.219L0.848,-5.219L0.848,-4.021L-5.572,-4.021L-5.572,-0.379L0,-0.379L0,0.82Z" style="fill-rule:nonzero;"/>
        </g>
        <g transform="matrix(1,0,0,1,240.1281,225.7476)">
            <path d="M0,5.583C0,5.073 -0.221,4.646 -0.662,4.3C-1.103,3.954 -1.879,3.66 -2.991,3.418C-4.37,3.135 -5.446,2.717 -6.22,2.166C-6.993,1.614 -7.38,0.921 -7.38,0.086C-7.38,-0.796 -6.964,-1.53 -6.131,-2.118C-5.299,-2.706 -4.218,-3 -2.889,-3C-1.46,-3 -0.321,-2.663 0.526,-1.99C1.375,-1.317 1.786,-0.533 1.761,0.364L1.733,0.41L-0.019,0.41C-0.019,-0.229 -0.288,-0.757 -0.825,-1.175C-1.362,-1.593 -2.05,-1.801 -2.889,-1.801C-3.746,-1.801 -4.403,-1.628 -4.859,-1.283C-5.316,-0.938 -5.544,-0.489 -5.544,0.062C-5.544,0.552 -5.294,0.961 -4.794,1.288C-4.294,1.615 -3.482,1.902 -2.357,2.15C-0.991,2.444 0.05,2.877 0.764,3.449C1.479,4.021 1.835,4.728 1.835,5.567C1.835,6.475 1.405,7.204 0.545,7.756C-0.315,8.308 -1.438,8.583 -2.823,8.583C-4.134,8.583 -5.291,8.279 -6.294,7.671C-7.298,7.062 -7.784,6.248 -7.752,5.228L-7.734,5.181L-5.982,5.181C-5.982,5.888 -5.659,6.433 -5.013,6.816C-4.367,7.2 -3.637,7.393 -2.823,7.393C-1.954,7.393 -1.266,7.23 -0.759,6.905C-0.253,6.581 0,6.14 0,5.583" style="fill-rule:nonzero;"/>
        </g>
        <g transform="matrix(1,0,0,1,263.9723,232.971)">
            <path d="M0,-8.862L-4.473,-8.862L-4.473,1.198L-6.308,1.198L-6.308,-8.862L-10.725,-8.862L-10.725,-10.06L0,-10.06L0,-8.862Z" style="fill-rule:nonzero;"/>
        </g>
        <g transform="matrix(1,0,0,1,277.5206,227.0868)">
            <path d="M0,2.906L4.053,2.906L2.078,-1.926L2.022,-1.926L0,2.906ZM4.575,4.182L-0.531,4.182L-1.743,7.082L-3.615,7.082L1.276,-4.176L2.851,-4.176L7.641,7.082L5.768,7.082L4.575,4.182Z" style="fill-rule:nonzero;"/>
        </g>
        <g transform="matrix(1,0,0,1,306.9283,234.3307)">
            <path d="M0,-11.42L0,-3.943C0,-2.706 -0.485,-1.739 -1.454,-1.044C-2.423,-0.348 -3.671,0 -5.2,0C-6.672,0 -7.877,-0.349 -8.815,-1.048C-9.753,-1.746 -10.222,-2.711 -10.222,-3.943L-10.222,-11.42L-8.386,-11.42L-8.386,-3.943C-8.386,-3.082 -8.09,-2.408 -7.497,-1.921C-6.903,-1.434 -6.138,-1.191 -5.2,-1.191C-4.206,-1.191 -3.396,-1.434 -2.772,-1.921C-2.148,-2.408 -1.836,-3.082 -1.836,-3.943L-1.836,-11.42L0,-11.42Z" style="fill-rule:nonzero;"/>
        </g>
        <g transform="matrix(1,0,0,1,321.5944,228.9954)">
            <path d="M0,-0.904L2.618,-0.904C3.656,-0.904 4.403,-1.068 4.859,-1.395C5.316,-1.722 5.544,-2.221 5.544,-2.891C5.544,-3.525 5.322,-4.016 4.878,-4.365C4.434,-4.713 3.743,-4.886 2.805,-4.886L0,-4.886L0,-0.904ZM0,0.294L0,5.173L-1.836,5.173L-1.836,-6.077L2.805,-6.077C4.289,-6.077 5.423,-5.804 6.206,-5.258C6.988,-4.711 7.38,-3.918 7.38,-2.876C7.38,-2.299 7.198,-1.797 6.834,-1.368C6.471,-0.94 5.941,-0.6 5.246,-0.347C5.991,-0.146 6.527,0.179 6.853,0.63C7.179,1.081 7.342,1.64 7.342,2.305L7.342,3.364C7.342,3.714 7.389,4.029 7.482,4.307C7.575,4.585 7.737,4.813 7.967,4.988L7.967,5.173L6.075,5.173C5.833,4.998 5.678,4.741 5.609,4.4C5.541,4.06 5.507,3.709 5.507,3.348L5.507,2.32C5.507,1.712 5.292,1.222 4.864,0.851C4.435,0.48 3.86,0.294 3.14,0.294L0,0.294Z" style="fill-rule:nonzero;"/>
        </g>
        <g transform="matrix(1,0,0,1,344.2555,227.0868)">
            <path d="M0,2.906L4.053,2.906L2.078,-1.926L2.022,-1.926L0,2.906ZM4.575,4.182L-0.531,4.182L-1.743,7.082L-3.615,7.082L1.276,-4.176L2.851,-4.176L7.641,7.082L5.768,7.082L4.575,4.182Z" style="fill-rule:nonzero;"/>
        </g>
        <g transform="matrix(1,0,0,1,374.0729,222.9105)">
            <path d="M0,11.258L-1.835,11.258L-8.368,2.659L-8.423,2.675L-8.423,11.258L-10.259,11.258L-10.259,0L-8.423,0L-1.892,8.59L-1.835,8.575L-1.835,0L0,0L0,11.258Z" style="fill-rule:nonzero;"/>
        </g>
        <g transform="matrix(1,0,0,1,396.3893,232.971)">
            <path d="M0,-8.862L-4.473,-8.862L-4.473,1.198L-6.308,1.198L-6.308,-8.862L-10.725,-8.862L-10.725,-10.06L0,-10.06L0,-8.862Z" style="fill-rule:nonzero;"/>
        </g>
        <g transform="matrix(1,0,0,1,159.2841,210.3403)">
            <path d="M0,-80.923C1.226,-80.896 -0.669,-78.798 -0.911,-77.843L-1.097,-77.039L4.592,-76.911C10.282,-76.692 16.417,-76.488 23.001,-76.296C29.583,-76.103 35.943,-75.96 42.082,-75.868C48.219,-75.775 53.745,-75.718 58.657,-75.699C63.569,-75.678 67.141,-75.732 69.38,-75.863C71.166,-75.912 72.817,-75.989 74.325,-76.089C75.834,-76.191 77.065,-76.275 78.014,-76.344C78.963,-76.411 79.526,-76.49 79.696,-76.576C79.865,-76.661 79.556,-76.713 78.777,-76.731C77.883,-76.751 75.988,-76.836 73.088,-76.986C70.188,-77.134 67.177,-77.309 64.057,-77.507C60.935,-77.704 58.147,-77.873 55.697,-78.013C53.241,-78.153 42.447,-78.574 42.338,-78.576C41.341,-78.854 52.195,-78.729 55.884,-78.904C58.903,-79.177 61.977,-79.321 65.104,-79.335C68.228,-79.35 71.743,-79.315 75.65,-79.228C80.113,-79.128 83.349,-79.011 85.358,-78.881C87.364,-78.752 88.642,-78.511 89.192,-78.158C90.072,-77.626 90.45,-77.056 90.325,-76.448C90.2,-75.837 89.573,-75.321 88.449,-74.898C87.659,-74.554 86.174,-74.251 83.991,-73.985C81.808,-73.719 79.432,-73.526 76.861,-73.404C75.742,-73.339 73.704,-73.294 70.744,-73.271C67.784,-73.248 64.382,-73.28 60.533,-73.366C56.682,-73.452 52.607,-73.565 48.315,-73.707C44.018,-73.848 40.031,-74.004 36.35,-74.178C24.526,-74.621 15.156,-74.967 8.24,-75.212C3.956,-75.363 0.956,-75.451 -0.761,-75.476C-1.918,-75.493 -3.011,-75.038 -3.734,-74.225C-3.742,-74.217 -3.749,-74.208 -3.756,-74.2C-4.505,-73.362 -5.818,-71.865 -7.711,-69.706C-9.6,-67.545 -12.18,-64.527 -15.449,-60.647C-18.718,-56.764 -22.934,-51.737 -28.096,-45.564C-31.534,-41.597 -34.862,-37.649 -38.074,-33.724C-41.289,-29.796 -44.218,-26.155 -46.86,-22.801C-49.505,-19.445 -51.833,-16.465 -53.843,-13.859C-55.856,-11.254 -57.325,-9.242 -58.248,-7.824C-58.829,-6.94 -59.118,-6.407 -59.122,-6.226C-59.126,-6.048 -58.788,-6.174 -58.108,-6.608C-57.768,-6.87 -57.575,-6.844 -57.524,-6.527C-57.476,-6.212 -57.624,-5.789 -57.971,-5.257C-58.553,-4.282 -59.329,-3.288 -60.299,-2.276C-61.271,-1.266 -61.925,-0.674 -62.265,-0.5C-63.171,0.018 -64.063,-0.002 -64.942,-0.56C-65.825,-1.12 -65.911,-2.179 -65.206,-3.734C-64.502,-5.292 -62.829,-7.748 -60.185,-11.103C-59.266,-12.251 -57.803,-14.06 -55.793,-16.531C-53.785,-19.003 -51.488,-21.805 -48.906,-24.935C-46.324,-28.065 -43.569,-31.397 -40.643,-34.926C-37.717,-38.454 -34.821,-41.94 -31.951,-45.381C-29.432,-48.289 -27.196,-50.912 -25.244,-53.25C-23.294,-55.586 -21.516,-57.749 -19.907,-59.736C-18.3,-61.721 -16.781,-63.575 -15.345,-65.294C-13.911,-67.014 -12.504,-68.756 -11.124,-70.523C-10.207,-71.669 -9.401,-72.686 -8.711,-73.57C-8.023,-74.451 -7.564,-74.981 -7.337,-75.157L-6.819,-75.819L-18.037,-75.935C-27.527,-75.966 -35.986,-75.866 -43.415,-75.629C-50.847,-75.39 -57.359,-74.95 -62.955,-74.313C-68.553,-73.675 -73.316,-72.838 -77.246,-71.804C-81.178,-70.767 -84.387,-69.558 -86.872,-68.178C-88.006,-67.482 -89.028,-66.697 -89.94,-65.82C-90.854,-64.942 -91.43,-64.101 -91.671,-63.298C-92.022,-62.585 -92.21,-61.693 -92.234,-60.614C-92.258,-59.537 -92.111,-58.59 -91.795,-57.775C-90.957,-55.329 -88.958,-52.43 -85.794,-49.08C-82.632,-45.728 -78.741,-42.429 -74.125,-39.182C-72.806,-38.253 -71.293,-37.32 -69.583,-36.384C-67.874,-35.447 -65.913,-34.549 -63.697,-33.691C-62.704,-33.218 -61.737,-32.792 -60.796,-32.413C-59.857,-32.032 -59.277,-31.749 -59.056,-31.566C-58.509,-31.102 -56.121,-30.244 -56.461,-29.982C-57.033,-29.457 -60.989,-30.08 -63.761,-30.862C-66.648,-31.645 -69.274,-32.738 -71.642,-34.139C-74.013,-35.54 -76.732,-37.488 -79.801,-39.983C-91.417,-49.767 -95.986,-57.599 -93.51,-63.474C-93.043,-64.451 -92.293,-65.468 -91.264,-66.524C-90.236,-67.579 -89.101,-68.451 -87.856,-69.144C-85.932,-70.357 -83.479,-71.425 -80.499,-72.348C-77.522,-73.269 -74.239,-74.004 -70.653,-74.554C-67.516,-75.111 -63.821,-75.59 -59.567,-75.99C-55.318,-76.388 -50.733,-76.712 -45.814,-76.963C-40.897,-77.21 -35.673,-77.362 -30.145,-77.42C-24.617,-77.474 -18.953,-77.439 -13.15,-77.309C-11.253,-77.266 -9.774,-77.233 -8.713,-77.209C-7.655,-77.186 -6.872,-77.19 -6.368,-77.224C-5.865,-77.257 -5.559,-77.294 -5.447,-77.339C-5.334,-77.379 -5.221,-77.445 -5.107,-77.533C-4.074,-78.739 -0.782,-80.941 0,-80.923" style="fill-rule:nonzero;"/>
        </g>
        <g transform="matrix(1,0,0,1,159.2841,210.3403)">
            <path d="M0,-80.923C1.226,-80.896 -0.669,-78.798 -0.911,-77.843L-1.097,-77.039L4.592,-76.911C10.282,-76.692 16.417,-76.488 23.001,-76.296C29.583,-76.103 35.943,-75.96 42.082,-75.868C48.219,-75.775 53.745,-75.718 58.657,-75.699C63.569,-75.678 67.141,-75.732 69.38,-75.863C71.166,-75.912 72.817,-75.989 74.325,-76.089C75.834,-76.191 77.065,-76.275 78.014,-76.344C78.963,-76.411 79.526,-76.49 79.696,-76.576C79.865,-76.661 79.556,-76.713 78.777,-76.731C77.883,-76.751 75.988,-76.836 73.088,-76.986C70.188,-77.134 67.177,-77.309 64.057,-77.507C60.935,-77.704 58.147,-77.873 55.697,-78.013C53.241,-78.153 42.447,-78.574 42.338,-78.576C41.341,-78.854 52.195,-78.729 55.884,-78.904C58.903,-79.177 61.977,-79.321 65.104,-79.335C68.228,-79.35 71.743,-79.315 75.65,-79.228C80.113,-79.128 83.349,-79.011 85.358,-78.881C87.364,-78.752 88.642,-78.511 89.192,-78.158C90.072,-77.626 90.45,-77.056 90.325,-76.448C90.2,-75.837 89.573,-75.321 88.449,-74.898C87.659,-74.554 86.174,-74.251 83.991,-73.985C81.808,-73.719 79.432,-73.526 76.861,-73.404C75.742,-73.339 73.704,-73.294 70.744,-73.271C67.784,-73.248 64.382,-73.28 60.533,-73.366C56.682,-73.452 52.607,-73.565 48.315,-73.707C44.018,-73.848 40.031,-74.004 36.35,-74.178C24.526,-74.621 15.156,-74.967 8.24,-75.212C3.956,-75.363 0.956,-75.451 -0.761,-75.476C-1.918,-75.493 -3.011,-75.038 -3.734,-74.225C-3.742,-74.217 -3.749,-74.208 -3.756,-74.2C-4.505,-73.362 -5.818,-71.865 -7.711,-69.706C-9.6,-67.545 -12.18,-64.527 -15.449,-60.647C-18.718,-56.764 -22.934,-51.737 -28.096,-45.564C-31.534,-41.597 -34.862,-37.649 -38.074,-33.724C-41.289,-29.796 -44.218,-26.155 -46.86,-22.801C-49.505,-19.445 -51.833,-16.465 -53.843,-13.859C-55.856,-11.254 -57.325,-9.242 -58.248,-7.824C-58.829,-6.94 -59.118,-6.407 -59.122,-6.226C-59.126,-6.048 -58.788,-6.174 -58.108,-6.608C-57.768,-6.87 -57.575,-6.844 -57.524,-6.527C-57.476,-6.212 -57.624,-5.789 -57.971,-5.257C-58.553,-4.282 -59.329,-3.288 -60.299,-2.276C-61.271,-1.266 -61.925,-0.674 -62.265,-0.5C-63.171,0.018 -64.063,-0.002 -64.942,-0.56C-65.825,-1.12 -65.911,-2.179 -65.206,-3.734C-64.502,-5.292 -62.829,-7.748 -60.185,-11.103C-59.266,-12.251 -57.803,-14.06 -55.793,-16.531C-53.785,-19.003 -51.488,-21.805 -48.906,-24.935C-46.324,-28.065 -43.569,-31.397 -40.643,-34.926C-37.717,-38.454 -34.821,-41.94 -31.951,-45.381C-29.432,-48.289 -27.196,-50.912 -25.244,-53.25C-23.294,-55.586 -21.516,-57.749 -19.907,-59.736C-18.3,-61.721 -16.781,-63.575 -15.345,-65.294C-13.911,-67.014 -12.504,-68.756 -11.124,-70.523C-10.207,-71.669 -9.401,-72.686 -8.711,-73.57C-8.023,-74.451 -7.564,-74.981 -7.337,-75.157L-6.819,-75.819L-18.037,-75.935C-27.527,-75.966 -35.986,-75.866 -43.415,-75.629C-50.847,-75.39 -57.359,-74.95 -62.955,-74.313C-68.553,-73.675 -73.316,-72.838 -77.246,-71.804C-81.178,-70.767 -84.387,-69.558 -86.872,-68.178C-88.006,-67.482 -89.028,-66.697 -89.94,-65.82C-90.854,-64.942 -91.43,-64.101 -91.671,-63.298C-92.022,-62.585 -92.21,-61.693 -92.234,-60.614C-92.258,-59.537 -92.111,-58.59 -91.795,-57.775C-90.957,-55.329 -88.958,-52.43 -85.794,-49.08C-82.632,-45.728 -78.741,-42.429 -74.125,-39.182C-72.806,-38.253 -71.293,-37.32 -69.583,-36.384C-67.874,-35.447 -65.913,-34.549 -63.697,-33.691C-62.704,-33.218 -61.737,-32.792 -60.796,-32.413C-59.857,-32.032 -59.277,-31.749 -59.056,-31.566C-58.509,-31.102 -56.121,-30.244 -56.461,-29.982C-57.033,-29.457 -60.989,-30.08 -63.761,-30.862C-66.648,-31.645 -69.274,-32.738 -71.642,-34.139C-74.013,-35.54 -76.732,-37.488 -79.801,-39.983C-91.417,-49.767 -95.986,-57.599 -93.51,-63.474C-93.043,-64.451 -92.293,-65.468 -91.264,-66.524C-90.236,-67.579 -89.101,-68.451 -87.856,-69.144C-85.932,-70.357 -83.479,-71.425 -80.499,-72.348C-77.522,-73.269 -74.239,-74.004 -70.653,-74.554C-67.516,-75.111 -63.821,-75.59 -59.567,-75.99C-55.318,-76.388 -50.733,-76.712 -45.814,-76.963C-40.897,-77.21 -35.673,-77.362 -30.145,-77.42C-24.617,-77.474 -18.953,-77.439 -13.15,-77.309C-11.253,-77.266 -9.774,-77.233 -8.713,-77.209C-7.655,-77.186 -6.872,-77.19 -6.368,-77.224C-5.865,-77.257 -5.559,-77.294 -5.447,-77.339C-5.334,-77.379 -5.221,-77.445 -5.107,-77.533C-4.074,-78.739 -0.782,-80.941 0,-80.923" style="fill-rule:nonzero;"/>
        </g>
        <g transform="matrix(1,0,0,1,150.8195,181.1539)">
            <path d="M0,-12.369C0,-13.288 -0.03,-13.887 -0.082,-14.163C-0.14,-14.438 -0.278,-14.714 -0.495,-14.991C-0.824,-15.45 -1.43,-15.495 -2.307,-15.128C-4.064,-14.484 -5.271,-13.611 -5.93,-12.508C-6.81,-11.311 -6.864,-10.206 -6.095,-9.196C-5.765,-8.827 -5.217,-8.482 -4.448,-8.162C-3.681,-7.838 -2.966,-7.678 -2.307,-7.678C-1.869,-7.678 -1.594,-7.747 -1.483,-7.886C-1.375,-8.023 -1.154,-8.413 -0.824,-9.058C-0.495,-9.977 -0.223,-11.08 0,-12.369M-2.307,-6.161L-3.789,-6.436C-6.535,-6.896 -8.182,-7.906 -8.73,-9.471C-8.73,-9.747 -8.787,-9.886 -8.895,-9.886C-9.224,-9.793 -9.664,-9.242 -10.212,-8.231C-11.2,-7.034 -11.887,-6.068 -12.271,-5.333C-12.657,-4.595 -13.122,-3.677 -13.671,-2.574C-15.318,1.658 -14.054,2.946 -9.883,1.29C-7.577,0.279 -5.493,-1.56 -3.625,-4.229L-2.307,-6.161ZM0.987,-15.68C1.536,-15.219 1.811,-14.323 1.811,-12.99C1.811,-11.656 1.536,-10.345 0.987,-9.058L0.327,-7.678L1.316,-7.817C2.852,-8 4.746,-8.482 6.999,-9.265C9.247,-10.046 11.47,-10.941 13.668,-11.955C15.534,-12.873 16.576,-13.335 16.798,-13.335C17.125,-13.335 17.07,-13.173 16.634,-12.853C16.194,-12.528 15.534,-12.115 14.655,-11.611C13.776,-11.104 12.789,-10.576 11.693,-10.024C10.593,-9.471 9.494,-9.011 8.398,-8.644C6.092,-7.724 3.402,-6.988 0.327,-6.436C-0.223,-6.251 -0.934,-5.516 -1.813,-4.229C-4.559,-0.274 -7.523,2.348 -10.706,3.635C-11.365,3.821 -12.106,3.958 -12.929,4.049C-13.753,4.14 -14.438,4.094 -14.988,3.911C-15.536,3.727 -16.085,3.337 -16.635,2.738C-17.183,2.14 -17.513,1.613 -17.624,1.151C-17.842,-0.135 -17.706,-1.699 -17.211,-3.54C-16.717,-5.378 -15.866,-7.079 -14.659,-8.644C-13.89,-9.655 -12.958,-10.759 -11.859,-11.955C-10.763,-13.149 -9.775,-14.025 -8.895,-14.577C-7.798,-15.219 -6.975,-15.495 -6.424,-15.404C-5.876,-15.404 -5.271,-15.495 -4.613,-15.68C-3.517,-16.233 -2.472,-16.509 -1.483,-16.509C-0.387,-16.509 0.437,-16.233 0.987,-15.68" style="fill-rule:nonzero;"/>
        </g>
        <g transform="matrix(1,0,0,1,157.8548,164.7318)">
            <path d="M0,20.515C-0.989,20.977 -1.756,20.885 -2.307,20.24C-2.414,20.056 -2.525,19.85 -2.635,19.619C-2.744,19.39 -2.8,19.184 -2.8,18.998C-2.8,18.446 -2.332,17.389 -1.4,15.824C-0.466,14.262 0.769,12.561 2.306,10.72C5.048,7.318 7.189,4.856 8.728,3.339C10.264,1.82 12.367,-0.462 13.137,-0.372C13.465,-0.28 14.179,-0.374 14.075,0.254C14.04,0.465 13.064,1.959 12.845,2.373C12.624,2.786 12.241,3.431 11.693,4.305C11.142,5.18 10.319,6.397 9.222,7.961L7.74,10.03L9.387,8.374C10.594,7.18 12.047,5.915 13.751,4.581C15.452,3.248 16.687,2.351 17.457,1.891C18.993,1.062 20.2,1.017 21.08,1.752C21.298,1.937 21.518,2.259 21.739,2.718C21.958,3.179 22.123,3.638 22.233,4.097C22.781,5.386 23.193,6.191 23.468,6.511C23.741,6.836 24.428,6.904 25.526,6.719C26.623,6.719 28.435,6.214 30.962,5.2C33.157,4.373 34.556,3.914 35.162,3.821C35.764,3.73 35.463,4.052 34.255,4.787C32.716,5.801 30.905,6.673 28.821,7.408C26.734,8.146 25.198,8.512 24.21,8.512C22.451,8.512 21.245,7.915 20.587,6.719C20.257,6.26 19.981,5.477 19.762,4.373C19.652,3.914 19.57,3.524 19.515,3.201C19.459,2.88 19.376,2.718 19.269,2.718C19.158,2.535 18.718,2.649 17.951,3.063C17.182,3.476 16.304,4.052 15.316,4.787C14.107,5.801 12.734,7.064 11.198,8.582C9.659,10.099 8.178,11.686 6.752,13.341C4.883,15.459 3.376,17.135 2.223,18.377C1.07,19.619 0.328,20.332 0,20.515" style="fill-rule:nonzero;"/>
        </g>
        <g transform="matrix(1,0,0,1,183.3822,166.8981)">
            <path d="M0,19.036C-0.989,19.498 -1.756,19.406 -2.307,18.761C-2.414,18.577 -2.525,18.371 -2.635,18.14C-2.744,17.911 -2.8,17.705 -2.8,17.519C-2.8,16.967 -2.332,15.91 -1.4,14.345C-0.466,12.783 0.769,11.082 2.306,9.241C5.048,5.839 7.189,3.377 8.728,1.86C10.264,0.341 11.418,-0.369 12.187,-0.278C12.516,-0.186 12.763,-0.072 12.928,0.067C13.093,0.204 13.064,0.48 12.845,0.894C12.624,1.307 12.241,1.952 11.693,2.826C11.142,3.701 10.319,4.918 9.222,6.482L7.74,8.551L9.387,6.895C10.594,5.701 12.047,4.436 13.751,3.102C15.452,1.769 16.687,0.872 17.457,0.412C18.993,-0.417 20.2,-0.462 21.08,0.273C21.298,0.458 21.518,0.78 21.739,1.239C21.958,1.7 22.123,2.159 22.233,2.618C22.781,3.907 23.193,4.712 23.468,5.032C23.741,5.357 24.428,5.425 25.526,5.24C26.623,5.24 28.435,4.735 30.962,3.721C33.157,2.894 34.556,2.435 35.162,2.342C35.764,2.251 35.463,2.573 34.255,3.308C32.716,4.322 30.905,5.194 28.821,5.929C26.734,6.667 25.198,7.033 24.21,7.033C22.451,7.033 21.245,6.436 20.587,5.24C20.257,4.781 19.981,3.998 19.762,2.894C19.652,2.435 19.57,2.045 19.515,1.722C19.459,1.401 19.376,1.239 19.269,1.239C19.158,1.056 18.718,1.17 17.951,1.584C17.182,1.997 16.304,2.573 15.316,3.308C14.107,4.322 12.734,5.585 11.198,7.103C9.659,8.62 8.178,10.207 6.752,11.862C4.883,13.98 3.376,15.656 2.223,16.898C1.07,18.14 0.328,18.853 0,19.036" style="fill-rule:nonzero;"/>
        </g>
        <g transform="matrix(1,0,0,1,216.5843,182.9462)">
            <path d="M0,-9.84C-1.332,-7.816 -2.591,-5.792 -3.778,-3.77C-4.967,-1.746 -5.702,-0.228 -5.988,0.784C-6.177,1.428 -6.273,1.842 -6.273,2.026C-6.273,2.21 -6.177,2.439 -5.988,2.716C-5.038,4.095 -2.708,3.543 0.998,1.06C2.517,0.141 4.443,-1.307 6.773,-3.286C9.1,-5.263 11.453,-7.403 13.829,-9.703C14.589,-10.438 15.231,-11.034 15.754,-11.496C16.275,-11.955 16.609,-12.113 16.68,-12.185C18.159,-13.688 16.798,-11.909 16.466,-11.358C16.132,-10.806 15.302,-9.885 13.972,-8.598C12.831,-7.309 11.594,-6.046 10.265,-4.804C8.933,-3.562 7.628,-2.39 6.344,-1.286C5.061,-0.182 3.825,0.807 2.638,1.68C1.448,2.555 0.428,3.221 -0.427,3.68C-1.949,4.509 -3.185,5.016 -4.134,5.198C-5.086,5.381 -5.988,5.244 -6.843,4.785C-8.647,3.956 -9.267,2.026 -8.697,-1.011C-8.506,-1.746 -8.102,-2.735 -7.485,-3.976C-6.865,-5.218 -6.177,-6.482 -5.418,-7.771C-4.658,-9.057 -3.849,-10.299 -2.994,-11.496C-2.139,-12.69 -1.379,-13.61 -0.712,-14.255C-0.049,-14.898 0.521,-15.221 0.998,-15.221C1.377,-15.221 1.662,-15.083 1.853,-14.807C2.233,-14.439 2.304,-13.978 2.067,-13.427C1.829,-12.875 1.141,-11.678 0,-9.84" style="fill-rule:nonzero;"/>
        </g>
        <g transform="matrix(1,0,0,1,267.1489,168.8928)">
            <path d="M0,8.141L-1.74,11.364C-3.114,13.753 -4.609,16.161 -6.223,18.587C-7.841,21.014 -9.02,22.65 -9.76,23.49C-9.775,23.506 -9.79,23.521 -9.805,23.537C-11.015,24.81 -13.158,23.599 -12.651,21.927C-12.627,21.848 -12.602,21.768 -12.576,21.686C-11.868,19.456 -10.819,17.196 -9.429,14.906C-8.647,13.542 -7.701,12.204 -6.596,10.891C-6.472,10.743 -6.36,10.622 -6.241,10.485C-6.179,10.375 -6.116,10.265 -6.053,10.161C-5.734,9.635 -5.346,9.148 -4.924,8.699C-4.639,8.396 -4.323,8.119 -3.984,7.873C-3.677,7.612 -3.376,7.343 -3.039,7.121C-2.556,6.801 -2.007,6.46 -1.413,6.415C-0.651,6.357 -0.086,6.854 0.021,7.593C0.053,7.808 0,7.984 -0.096,8.123L0,8.141ZM23.192,-31.357C22.944,-31.318 22.759,-31.313 22.63,-31.345C22.499,-31.375 22.372,-31.383 22.252,-31.364C21.656,-31.165 21.029,-30.601 20.364,-29.669C19.697,-28.734 18.748,-27.033 17.514,-24.566C17.047,-23.56 16.359,-22.185 15.448,-20.437C14.536,-18.69 13.645,-17.024 12.771,-15.439C12.016,-13.87 10.964,-11.842 9.608,-9.354C8.25,-6.864 7.046,-4.607 5.992,-2.579C4.936,-0.55 3.973,1.258 3.099,2.842C2.226,4.431 1.741,5.334 1.652,5.553L1.359,6.065L0.667,5.244C-0.427,3.866 -1.97,3.387 -3.967,3.805C-5.963,4.224 -7.862,5.456 -9.664,7.497C-10.617,8.579 -11.512,9.859 -12.339,11.333C-13.166,12.809 -13.897,14.321 -14.528,15.868C-15.156,17.416 -15.601,18.96 -15.858,20.498C-16.113,22.04 -16.163,23.314 -16.004,24.321C-15.669,26.44 -14.988,27.574 -13.966,27.722C-11.675,27.98 -9.36,26.426 -7.016,23.056C-6.397,22.235 -5.597,20.97 -4.615,19.264C-3.638,17.558 -2.51,15.596 -1.235,13.378C0.038,11.16 1.325,8.812 2.62,6.33C3.916,3.853 5.135,1.488 6.279,-0.763C6.868,-1.786 7.397,-2.774 7.873,-3.729C8.346,-4.681 8.778,-5.502 9.173,-6.183C9.546,-6.965 9.984,-7.759 10.483,-8.562C10.408,-8.24 10.281,-7.857 10.102,-7.416C9.905,-7.075 9.722,-6.658 9.549,-6.166C9.382,-5.693 9.222,-5.195 9.065,-4.677C9.052,-4.635 9.039,-4.596 9.022,-4.556C8.482,-3.226 7.7,-1.128 6.674,1.735C5.633,4.64 4.55,7.681 3.43,10.857C2.305,14.034 1.273,16.99 0.331,19.722C-0.613,22.457 -1.249,24.368 -1.575,25.453C-2.682,28.73 -3.442,31.642 -3.849,34.189C-4.072,35.563 -4.182,36.664 -4.181,37.491C-4.178,38.679 -2.989,39.524 -1.878,39.067C-1.655,38.975 -1.417,38.862 -1.164,38.727C-0.725,38.347 -0.285,37.759 0.152,36.968C0.59,36.175 2.986,32.059 3.152,31.517C3.193,30.992 0.997,34.081 0.884,34.151C0.77,34.22 0.509,34.687 -0.02,35.289C-0.445,35.768 -0.603,35.742 -0.501,35.21C-0.398,34.675 0.031,32.851 0.789,29.732C1.233,27.801 1.627,26.133 1.967,24.737C2.31,23.341 2.636,22.049 2.948,20.859C3.26,19.673 3.603,18.483 3.977,17.284C4.351,16.088 4.783,14.676 5.276,13.045C7.726,5.628 10.474,-1.503 13.517,-8.344C16.56,-15.185 19.489,-21.155 22.311,-26.254C23.379,-28.181 23.959,-29.462 24.046,-30.097C24.134,-30.73 23.847,-31.15 23.192,-31.357" style="fill-rule:nonzero;"/>
        </g>
        <g transform="matrix(1,0,0,1,283.7867,184.8418)">
            <path d="M0,-8.178C0.885,-8.818 1.724,-9.53 2.611,-10.165C2.788,-10.292 2.97,-10.414 3.151,-10.537C3.438,-10.763 3.733,-10.974 4.029,-11.156C4.988,-11.744 6.081,-12.232 7.172,-12.403C7.521,-12.457 7.862,-12.234 7.926,-11.846C7.946,-11.73 7.925,-11.612 7.889,-11.499C7.888,-11.477 7.89,-11.46 7.888,-11.437C7.849,-10.977 7.285,-10.332 6.2,-9.501C5.113,-8.669 4.041,-8.021 2.989,-7.557C2.149,-7.257 1.395,-7.044 0.725,-6.916C0.597,-6.891 0.493,-6.878 0.39,-6.864C0.299,-6.82 0.197,-6.792 0.075,-6.802C-0.03,-6.811 -0.119,-6.841 -0.194,-6.886C-0.203,-6.892 -0.207,-6.899 -0.215,-6.906C-0.657,-7.206 -0.546,-8.051 0,-8.178M22.149,-7.952C21.565,-7.676 20.417,-7.012 18.703,-5.958C13.227,-2.449 8.516,0.109 4.57,1.714C0.626,3.321 -2.085,3.833 -3.559,3.246C-5.428,2.534 -5.19,0.294 -2.84,-3.478L-1.945,-5.064L-1.235,-4.45C0.292,-3.305 2.578,-3.899 5.62,-6.227C6.597,-6.976 7.483,-7.847 8.278,-8.842C9.071,-9.836 9.49,-10.562 9.528,-11.022C9.567,-11.479 9.33,-12.008 8.824,-12.603C8.314,-13.201 7.807,-13.52 7.304,-13.563C6.699,-13.614 5.901,-13.495 4.912,-13.21C3.921,-12.923 2.951,-12.545 1.997,-12.071C0.297,-11.197 -1.239,-10.149 -2.611,-8.927C-3.985,-7.704 -5.134,-6.393 -6.067,-4.996C-6.996,-3.596 -7.619,-2.218 -7.938,-0.861C-8.254,0.497 -8.199,1.657 -7.774,2.614C-7.353,3.667 -6.753,4.385 -5.973,4.773C-5.195,5.164 -4.246,5.358 -3.127,5.359C-2.321,5.426 -1.662,5.436 -1.149,5.387C-0.638,5.339 0.037,5.164 0.877,4.865C2.024,4.501 3.549,3.892 5.451,3.034C7.351,2.179 9.207,1.228 11.025,0.18C11.986,-0.383 13.164,-1.115 14.562,-2.014C15.956,-2.911 17.276,-3.793 18.519,-4.658C19.757,-5.523 20.81,-6.264 21.677,-6.884C22.542,-7.504 22.979,-7.858 22.986,-7.951C23.01,-8.226 22.729,-8.226 22.149,-7.952" style="fill-rule:nonzero;"/>
        </g>
        <g transform="matrix(1,0,0,1,319.7003,174.4858)">
            <path d="M0,-16.418C-0.66,-15.68 -1.375,-14.739 -2.142,-13.59C-2.911,-12.439 -3.652,-11.314 -4.365,-10.209C-5.08,-9.106 -5.683,-8.14 -6.176,-7.313C-6.671,-6.484 -6.918,-6.024 -6.918,-5.933C-6.918,-5.748 -6.37,-6.002 -5.271,-6.691C-4.174,-7.381 -2.857,-8.278 -1.318,-9.382C0.547,-10.761 2.524,-12.417 4.611,-14.349C6.695,-16.281 8.506,-18.164 10.045,-20.006C12.571,-23.041 14.575,-25.822 16.057,-28.353C17.539,-30.881 18.005,-32.374 17.457,-32.836L17.292,-32.975C16.741,-33.064 15.534,-32.399 13.669,-30.974C11.801,-29.547 9.989,-27.96 8.234,-26.213C7.025,-25.018 5.653,-23.5 4.116,-21.661C2.578,-19.82 1.206,-18.074 0,-16.418M-8.729,-2.483C-8.84,-2.391 -9.088,-1.977 -9.471,-1.242C-9.857,-0.504 -10.268,0.368 -10.706,1.379C-11.146,2.393 -11.558,3.428 -11.941,4.485C-12.326,5.543 -12.628,6.394 -12.847,7.036C-13.616,9.706 -13.781,11.82 -13.34,13.383C-12.682,15.405 -10.762,15.728 -7.576,14.348C-3.186,12.417 2.359,8.05 9.057,1.242C9.935,0.231 10.923,-0.759 12.022,-1.725C13.118,-2.69 13.777,-3.173 13.998,-3.173C14.546,-3.54 14.163,-2.85 12.845,-1.103C11.746,0.276 10.401,1.793 8.81,3.449C7.218,5.104 5.599,6.715 3.952,8.278C2.306,9.843 0.658,11.245 -0.989,12.485C-2.635,13.727 -4.009,14.67 -5.106,15.314C-8.51,17.153 -11.256,17.66 -13.34,16.831C-14.548,16.28 -15.536,15.266 -16.305,13.796C-17.512,10.946 -16.742,6.44 -14,0.276C-12.792,-2.391 -11.092,-5.471 -8.894,-8.968C-6.7,-12.462 -4.393,-15.68 -1.977,-18.626C-0.33,-20.647 1.399,-22.579 3.211,-24.42C5.022,-26.259 6.752,-27.869 8.399,-29.248C10.045,-30.629 11.581,-31.733 13.01,-32.56C14.435,-33.388 15.646,-33.892 16.634,-34.078L17.127,-34.078C18.223,-34.078 18.774,-33.526 18.774,-32.422C18.774,-31.684 18.502,-30.31 17.679,-28.885C16.856,-27.459 15.916,-25.884 14.656,-24.091C13.392,-22.297 11.87,-20.336 10.279,-18.359C8.686,-16.381 7.028,-14.582 5.38,-12.835C4.611,-12.008 3.61,-11.092 2.514,-10.126C1.415,-9.16 0.489,-8.334 -0.664,-7.416C-1.817,-6.495 -3.13,-5.863 -4.118,-5.173C-5.106,-4.483 -5.875,-4.001 -6.423,-3.725C-6.863,-3.54 -7.304,-3.332 -7.741,-3.104C-8.181,-2.873 -8.51,-2.667 -8.729,-2.483" style="fill-rule:nonzero;"/>
        </g>
        <g transform="matrix(1,0,0,1,343.1284,174.4858)">
            <path d="M0,-16.418C-0.66,-15.68 -1.375,-14.739 -2.142,-13.59C-2.911,-12.439 -3.652,-11.314 -4.365,-10.209C-5.08,-9.106 -5.683,-8.14 -6.176,-7.313C-6.671,-6.484 -6.918,-6.024 -6.918,-5.933C-6.918,-5.748 -6.37,-6.002 -5.271,-6.691C-4.174,-7.381 -2.857,-8.278 -1.318,-9.382C0.547,-10.761 2.524,-12.417 4.611,-14.349C6.695,-16.281 8.506,-18.164 10.045,-20.006C12.571,-23.041 14.575,-25.822 16.056,-28.353C17.539,-30.881 18.005,-32.374 17.457,-32.836L17.292,-32.975C16.741,-33.064 15.534,-32.399 13.668,-30.974C11.801,-29.547 9.989,-27.96 8.234,-26.213C7.025,-25.018 5.653,-23.5 4.116,-21.661C2.578,-19.82 1.206,-18.074 0,-16.418M-8.729,-2.483C-8.84,-2.391 -9.088,-1.977 -9.471,-1.242C-9.857,-0.504 -10.268,0.368 -10.706,1.379C-11.146,2.393 -11.558,3.428 -11.941,4.485C-12.326,5.543 -12.628,6.394 -12.847,7.036C-13.616,9.706 -13.781,11.82 -13.34,13.383C-12.682,15.405 -10.762,15.728 -7.576,14.348C-3.186,12.417 2.359,8.05 9.057,1.242C9.935,0.231 10.923,-0.759 12.022,-1.725C13.118,-2.69 13.777,-3.173 13.998,-3.173C14.546,-3.54 14.163,-2.85 12.845,-1.103C11.746,0.276 10.401,1.793 8.81,3.449C7.218,5.104 5.599,6.715 3.952,8.278C2.306,9.843 0.658,11.245 -0.989,12.485C-2.635,13.727 -4.009,14.67 -5.106,15.314C-8.511,17.153 -11.256,17.66 -13.34,16.831C-14.548,16.28 -15.536,15.266 -16.305,13.796C-16.788,10.614 -16.351,6.911 -14,0.276C-12.792,-2.391 -11.092,-5.471 -8.894,-8.968C-6.7,-12.462 -4.393,-15.68 -1.977,-18.626C-0.33,-20.647 1.399,-22.579 3.211,-24.42C5.022,-26.259 6.752,-27.869 8.399,-29.248C10.045,-30.629 11.581,-31.733 13.01,-32.56C14.435,-33.388 15.646,-33.892 16.634,-34.078L17.127,-34.078C18.223,-34.078 18.774,-33.526 18.774,-32.422C18.774,-31.684 18.362,-30.604 17.539,-29.18C16.716,-27.753 15.67,-26.145 14.41,-24.351C13.146,-22.557 11.719,-20.672 10.128,-18.695C8.535,-16.716 6.917,-14.853 5.269,-13.107C4.5,-12.28 3.566,-11.382 2.47,-10.416C1.371,-9.45 0.246,-8.507 -0.907,-7.589C-2.06,-6.668 -3.13,-5.863 -4.118,-5.173C-5.106,-4.483 -5.875,-4.001 -6.423,-3.725C-6.863,-3.54 -7.304,-3.332 -7.741,-3.104C-8.181,-2.873 -8.511,-2.667 -8.729,-2.483" style="fill-rule:nonzero;"/>
        </g>
        <g transform="matrix(1,0,0,1,377.3093,154.6572)">
            <path d="M0,-10.966C0.61,-11.338 1.282,-11.378 2.015,-11.081C2.746,-10.783 3.059,-10.272 2.95,-9.545C2.909,-9.272 2.618,-8.828 2.084,-8.211C1.546,-7.595 0.916,-6.921 0.197,-6.193C-0.524,-5.463 -1.298,-4.743 -2.126,-4.03C-2.957,-3.319 -3.683,-2.731 -4.308,-2.266C-5.654,-1.444 -7.491,0.412 -7.34,-0.589C-7.286,-0.952 -5.764,-3.484 -5.252,-4.292C-4.743,-5.098 -4.17,-5.943 -3.538,-6.824C-2.905,-7.706 -2.255,-8.536 -1.58,-9.32C-0.908,-10.102 -0.381,-10.651 0,-10.966" style="fill-rule:nonzero;"/>
        </g>
        <g transform="matrix(1,0,0,1,384.9651,179.3621)">
            <path d="M0,-3.497C1.646,-5.153 2.66,-6.256 3.046,-6.808C3.429,-7.359 3.566,-7.864 3.458,-8.325C3.347,-8.784 3.129,-9.015 2.799,-9.015C2.359,-9.106 1.59,-8.923 0.493,-8.464C-1.594,-7.635 -3.706,-6.256 -5.848,-4.324C-7.988,-2.392 -9.663,-0.462 -10.87,1.47C-12.407,4.046 -12.571,5.334 -11.364,5.334C-11.035,5.334 -10.265,5.012 -9.059,4.368C-8.071,3.815 -6.727,2.804 -5.023,1.333C-3.322,-0.138 -1.647,-1.748 0,-3.497M5.929,-9.291C6.805,-9.291 7.271,-9.015 7.329,-8.464C7.382,-7.912 6.97,-6.854 6.094,-5.29C4.883,-2.898 4.089,-1.013 3.704,0.367C3.32,1.746 3.237,2.943 3.458,3.954C3.566,4.781 4.007,5.288 4.776,5.471C5.104,5.657 5.405,5.725 5.681,5.679C5.954,5.633 6.366,5.519 6.917,5.334C8.453,4.873 10.375,3.884 12.681,2.367C14.986,0.849 17.895,-1.38 21.41,-4.324C22.946,-5.518 24.234,-6.532 25.28,-7.359C26.322,-8.188 26.899,-8.601 27.009,-8.601C27.775,-8.601 26.899,-7.498 24.373,-5.29C21.41,-2.531 18.527,-0.117 15.728,1.954C12.928,4.023 10.648,5.426 8.892,6.161C5.378,7.634 2.964,7.312 1.646,5.195C1.316,4.644 1.095,3.701 0.988,2.367C0.877,1.034 0.932,-0.047 1.153,-0.875C1.153,-1.058 1.178,-1.172 1.235,-1.22C1.289,-1.266 1.316,-1.38 1.316,-1.565L1.316,-1.979L0.493,-1.289C0.272,-1.103 0,-0.852 -0.33,-0.531C-0.66,-0.208 -0.989,0.139 -1.318,0.504C-3.846,3.08 -5.875,4.873 -7.411,5.885C-8.95,6.899 -10.376,7.45 -11.694,7.54C-12.571,7.726 -13.284,7.634 -13.835,7.264C-14.931,6.713 -15.482,5.657 -15.482,4.092C-15.482,2.988 -15.124,1.746 -14.412,0.367C-13.696,-1.013 -12.764,-2.346 -11.612,-3.634C-10.459,-4.922 -9.088,-6.119 -7.494,-7.222C-5.904,-8.325 -4.283,-9.244 -2.635,-9.981C-0.881,-10.809 0.712,-11.223 2.141,-11.223C3.566,-11.223 4.446,-10.809 4.776,-9.981C5.104,-9.519 5.488,-9.291 5.929,-9.291" style="fill-rule:nonzero;"/>
        </g>
        <g transform="matrix(1,0,0,1,436.2478,185.1089)">
            <path d="M0,-14.072C-0.099,-14.072 -0.515,-13.772 -1.249,-13.176C-1.983,-12.576 -2.891,-11.772 -3.968,-10.761C-5.634,-9.381 -7.03,-8.209 -8.156,-7.243C-9.282,-6.277 -10.311,-5.449 -11.241,-4.759C-12.173,-4.069 -13.077,-3.448 -13.959,-2.897C-14.84,-2.345 -15.821,-1.793 -16.898,-1.242C-20.131,0.414 -22.825,1.197 -24.979,1.104C-26.941,1.013 -28.164,0.414 -28.653,-0.689C-29.535,-2.253 -29.093,-4.69 -27.33,-8.002C-26.646,-9.289 -25.714,-10.506 -24.538,-11.658C-23.364,-12.807 -22.238,-13.61 -21.159,-14.072C-19.893,-14.626 -19.214,-14.519 -19.041,-13.844C-19.001,-13.789 -18.961,-13.733 -18.92,-13.679C-18.839,-13.572 -18.755,-13.468 -18.666,-13.368C-18.652,-13.352 -18.636,-13.339 -18.622,-13.324C-18.408,-13.157 -18.188,-12.998 -17.965,-12.848C-17.954,-12.843 -17.937,-12.836 -17.933,-12.835C-17.882,-12.818 -17.832,-12.803 -17.78,-12.79C-17.761,-12.785 -17.659,-12.77 -17.637,-12.765C-17.511,-12.754 -17.386,-12.75 -17.259,-12.753C-17.247,-12.754 -17.25,-12.753 -17.242,-12.754C-17.216,-12.76 -17.19,-12.766 -17.164,-12.773C-17.15,-12.777 -17.07,-12.811 -17.042,-12.82C-17.009,-12.84 -16.96,-12.87 -16.952,-12.876C-16.934,-12.888 -16.917,-12.902 -16.9,-12.915C-16.894,-12.921 -16.896,-12.919 -16.886,-12.929C-16.853,-12.968 -16.816,-13.003 -16.783,-13.043C-16.764,-13.065 -16.746,-13.089 -16.729,-13.112C-16.727,-13.114 -16.728,-13.113 -16.727,-13.115C-16.724,-13.119 -16.723,-13.124 -16.72,-13.128C-16.675,-13.298 -16.626,-13.466 -16.595,-13.64C-16.572,-13.779 -16.496,-13.879 -16.405,-13.961C-16.366,-14.121 -16.342,-14.28 -16.32,-14.438C-16.346,-15.316 -16.729,-16.071 -17.486,-16.694C-18.271,-17.337 -19.201,-17.566 -20.277,-17.383C-21.357,-17.198 -22.507,-16.762 -23.73,-16.073C-24.956,-15.383 -26.081,-14.508 -27.11,-13.451C-28.138,-12.393 -29.071,-11.196 -29.902,-9.865C-30.733,-8.529 -31.346,-7.22 -31.739,-5.932C-32.033,-4.918 -32.179,-3.838 -32.179,-2.69C-32.179,-1.538 -31.981,-0.689 -31.592,-0.137C-31.297,0.599 -30.857,1.221 -30.269,1.725C-29.682,2.232 -28.998,2.577 -28.212,2.759C-25.372,3.494 -21.92,2.876 -17.853,0.898C-13.79,-1.08 -9.356,-4.367 -4.555,-8.968C-1.226,-12.093 0.294,-13.796 0,-14.072" style="fill-rule:nonzero;"/>
        </g>
        <g transform="matrix(1,0,0,1,436.6465,193.3953)">
            <path d="M0,9.63C0.109,11.362 -0.165,13.399 -0.823,15.745C-1.483,18.088 -2.388,20.406 -3.541,22.701C-4.694,24.993 -5.955,27.056 -7.329,28.89C-8.7,30.725 -10.047,31.949 -11.363,32.559C-12.241,32.966 -12.872,33.195 -13.258,33.247C-13.641,33.297 -13.998,33.171 -14.328,32.865C-14.546,32.66 -14.682,32.379 -14.74,32.025C-14.794,31.666 -14.823,31.081 -14.823,30.267C-14.823,25.578 -11.583,17.68 -5.106,6.573L-3.293,3.516L-2.306,4.281C-0.988,5.503 -0.221,7.286 0,9.63M8.077,-19.982C8.124,-19.848 7.912,-19.514 7.411,-18.955C6.86,-18.343 6.037,-17.629 4.941,-16.814C2.635,-14.774 0.412,-12.839 -1.728,-11.007C-3.871,-9.172 -5.213,-8.102 -5.764,-7.796C-7.74,-6.47 -8.123,-7.284 -6.917,-10.241C-6.477,-11.465 -5.818,-12.712 -4.941,-13.987C-4.063,-15.26 -3.102,-16.508 -2.058,-17.732C-1.017,-18.955 0.055,-20.025 1.153,-20.941C2.249,-21.859 3.293,-22.57 4.283,-23.082C4.941,-23.388 5.436,-23.54 5.764,-23.54C6.124,-23.54 6.411,-23.39 6.64,-23.117C6.689,-23.084 6.746,-23.063 6.791,-23.025C7.102,-22.763 7.346,-22.46 7.572,-22.106C7.757,-21.814 7.901,-21.497 8.015,-21.164C8.105,-20.903 8.118,-20.604 8.092,-20.313C8.105,-20.201 8.102,-20.091 8.077,-19.982M32.56,-23.694C32.397,-23.694 32.043,-23.488 31.499,-23.082C30.953,-22.674 30.138,-22.036 29.051,-21.171C27.961,-20.303 26.492,-19.107 24.644,-17.578C20.943,-14.42 17.952,-11.999 15.667,-10.318C13.382,-8.636 11.15,-7.082 8.975,-5.656C8.213,-5.144 7.287,-4.611 6.2,-4.051C5.111,-3.492 4.05,-2.957 3.018,-2.445C1.981,-1.937 1.111,-1.504 0.406,-1.146C-0.303,-0.79 -0.655,-0.664 -0.655,-0.764C-0.655,-0.866 -0.222,-1.58 0.651,-2.905C1.52,-4.229 2.662,-5.908 4.079,-7.948C5.491,-9.987 7.097,-12.279 8.894,-14.828C10.688,-17.373 12.566,-19.971 14.524,-22.623C15.72,-24.152 16.508,-25.246 16.891,-25.91C17.271,-26.571 17.406,-26.953 17.299,-27.056L17.136,-27.056C16.809,-27.056 16.047,-26.598 14.851,-25.68C13.651,-24.764 12.456,-23.744 11.26,-22.623C10.28,-21.705 9.735,-21.247 9.627,-21.247C9.408,-21.247 9.408,-21.603 9.627,-22.317C9.844,-23.64 9.408,-24.814 8.322,-25.834C7.016,-26.851 5.384,-27.056 3.425,-26.444C1.467,-25.834 -0.63,-24.404 -2.859,-22.165C-5.087,-19.921 -6.965,-17.426 -8.49,-14.674C-9.577,-12.737 -10.229,-10.953 -10.448,-9.324C-10.665,-7.692 -10.392,-6.47 -9.633,-5.656C-8.653,-4.639 -7.237,-4.585 -5.388,-5.503C-5.063,-5.706 -4.029,-6.596 -2.287,-8.178C-0.549,-9.757 1.411,-11.515 3.588,-13.451C5.654,-15.488 7.424,-17.17 8.894,-18.496C10.361,-19.819 11.041,-20.431 10.933,-20.331C10.823,-20.125 10.361,-19.489 9.546,-18.42C8.73,-17.35 7.722,-16.1 6.527,-14.674C5.327,-13.246 3.968,-11.541 2.446,-9.554C0.921,-7.566 -0.275,-5.908 -1.145,-4.585C-2.124,-3.263 -2.968,-2.116 -3.675,-1.146C-4.384,-0.178 -4.789,0.356 -4.899,0.458C-5.116,0.662 -5.659,0.764 -6.532,0.764C-7.511,0.764 -10.905,0.84 -11.014,1.146C-16.333,1.55 -7.891,1.732 -7.348,1.834C-6.694,2.038 -6.368,2.19 -6.368,2.292C-6.042,2.598 -6.311,3.21 -7.184,4.127C-8.054,5.351 -8.979,6.776 -9.959,8.408C-10.938,10.036 -11.862,11.694 -12.733,13.375C-13.603,15.057 -14.419,16.636 -15.181,18.114C-15.941,19.591 -16.487,20.839 -16.814,21.859C-17.684,23.999 -18.228,26.036 -18.447,27.974C-18.663,29.909 -18.553,31.539 -18.12,32.865C-17.901,33.578 -17.521,34.241 -16.978,34.852C-16.432,35.464 -15.888,35.87 -15.345,36.076C-13.06,36.686 -10.665,35.82 -8.163,33.477C-7.074,32.253 -5.96,30.699 -4.818,28.814C-3.675,26.928 -2.642,24.89 -1.717,22.701C-0.794,20.507 -0.058,18.344 0.488,16.203C1.031,14.063 1.303,12.177 1.303,10.548C1.303,9.118 0.977,7.668 0.324,6.191C-0.329,4.713 -1.092,3.617 -1.961,2.904C-2.398,2.598 -2.507,2.241 -2.287,1.834C-2.071,1.323 -1.854,1.07 -1.635,1.07C-1.417,1.07 -0.847,0.864 0.079,0.458C1.002,0.05 2.063,-0.458 3.262,-1.07C4.458,-1.681 5.654,-2.293 6.852,-2.905C8.049,-3.515 8.975,-4.027 9.627,-4.433C11.366,-5.554 13.326,-6.902 15.503,-8.484C17.679,-10.063 19.964,-11.87 22.358,-13.91C23.664,-14.928 24.943,-15.998 26.194,-17.12C27.444,-18.241 28.561,-19.261 29.54,-20.177C30.52,-21.095 31.307,-21.859 31.906,-22.47C32.504,-23.082 32.805,-23.438 32.805,-23.54C32.805,-23.64 32.723,-23.694 32.56,-23.694" style="fill-rule:nonzero;"/>
        </g>
        <g transform="matrix(1,0,0,1,464.343,169.6604)">
            <path d="M0,15.958C-2.105,16.971 -3.651,16.971 -4.651,15.958C-5.65,14.947 -5.78,13.383 -5.046,11.266C-4.73,10.256 -4.151,9.083 -3.311,7.748C-2.472,6.416 -1.577,5.15 -0.631,3.955C0.314,2.759 1.234,1.747 2.128,0.918C3.02,0.091 3.729,-0.322 4.257,-0.322C4.675,-0.322 5.044,-0.185 5.36,0.091C5.676,0.367 5.834,0.643 5.834,0.918C5.834,1.288 5.306,2.07 4.257,3.265C3.204,4.554 2.232,5.84 1.34,7.127C0.446,8.416 -0.291,9.59 -0.868,10.646C-1.447,11.704 -1.84,12.577 -2.051,13.266C-2.262,13.957 -2.207,14.302 -1.893,14.302C-1.577,14.302 -1.025,14.095 -0.237,13.681C0.551,13.266 1.364,12.784 2.207,12.232C2.837,11.773 3.887,10.946 5.36,9.749C6.831,8.555 8.329,7.289 9.853,5.955C11.377,4.623 12.771,3.357 14.032,2.16C15.293,0.966 16.133,0.139 16.554,-0.322C17.815,-1.793 18.814,-2.345 19.55,-1.978C19.866,-1.702 19.969,-1.31 19.866,-0.806C19.76,-0.299 19.286,0.598 18.447,1.884C15.712,6.024 13.926,9.404 13.085,12.026C12.244,14.647 12.507,15.958 13.875,15.958C14.399,15.958 15.371,15.636 16.791,14.992C18.21,14.349 19.602,13.611 20.97,12.784C21.6,12.325 22.492,11.659 23.649,10.784C24.805,9.911 25.96,9.059 27.118,8.231C30.375,5.565 32.609,3.771 33.818,2.85C35.026,1.932 35.736,1.425 35.948,1.333C36.051,1.333 36.157,1.38 36.262,1.471C36.262,1.656 35.605,2.346 34.292,3.54C32.976,4.737 31.455,6.071 29.72,7.541C27.986,9.014 26.251,10.439 24.517,11.818C22.782,13.198 21.442,14.212 20.496,14.853C16.712,17.338 13.926,18.303 12.14,17.751C11.298,17.475 10.641,16.854 10.169,15.888C9.696,14.922 9.563,13.797 9.775,12.508C9.878,11.773 10.142,10.807 10.564,9.612C10.982,8.416 11.456,7.265 11.982,6.161C12.192,5.795 12.14,5.703 11.824,5.885C11.51,6.071 10.72,6.76 9.46,7.956C4.73,12.371 1.576,15.039 0,15.958" style="fill-rule:nonzero;"/>
        </g>
        <g transform="matrix(1,0,0,1,507.4311,177.7494)">
            <path d="M0,-3.497C1.572,-5.153 2.54,-6.256 2.909,-6.808C3.275,-7.359 3.405,-7.864 3.303,-8.325C3.196,-8.784 2.988,-9.015 2.673,-9.015C2.253,-9.106 1.518,-8.923 0.471,-8.464C-1.522,-7.635 -3.539,-6.256 -5.584,-4.324C-7.629,-2.392 -9.228,-0.462 -10.38,1.47C-11.848,4.046 -12.005,5.334 -10.853,5.334C-10.538,5.334 -9.803,5.012 -8.651,4.368C-7.707,3.815 -6.424,2.804 -4.797,1.333C-3.173,-0.138 -1.573,-1.748 0,-3.497M5.662,-9.291C6.499,-9.291 6.944,-9.015 6.999,-8.464C7.05,-7.912 6.656,-6.854 5.819,-5.29C4.663,-2.898 3.905,-1.013 3.537,0.367C3.17,1.746 3.091,2.943 3.303,3.954C3.405,4.781 3.826,5.288 4.561,5.471C4.875,5.657 5.162,5.725 5.426,5.679C5.685,5.633 6.079,5.519 6.605,5.334C8.072,4.873 9.908,3.884 12.11,2.367C14.311,0.849 17.089,-1.38 20.445,-4.324C21.912,-5.518 23.143,-6.532 24.142,-7.359C25.136,-8.188 25.687,-8.601 25.792,-8.601C26.524,-8.601 25.687,-7.498 23.276,-5.29C20.445,-2.531 17.693,-0.117 15.02,1.954C12.346,4.023 10.169,5.426 8.492,6.161C5.136,7.634 2.83,7.312 1.572,5.195C1.257,4.644 1.046,3.701 0.943,2.367C0.837,1.034 0.89,-0.047 1.101,-0.875C1.101,-1.058 1.124,-1.172 1.18,-1.22C1.231,-1.266 1.257,-1.38 1.257,-1.565L1.257,-1.979L0.471,-1.289C0.26,-1.104 0,-0.852 -0.315,-0.531C-0.63,-0.208 -0.945,0.139 -1.258,0.504C-3.673,3.08 -5.611,4.873 -7.078,5.885C-8.547,6.899 -9.909,7.45 -11.167,7.54C-12.005,7.726 -12.686,7.634 -13.212,7.264C-14.259,6.713 -14.785,5.657 -14.785,4.092C-14.785,2.988 -14.443,1.746 -13.763,0.367C-13.079,-1.013 -12.19,-2.346 -11.089,-3.634C-9.988,-4.922 -8.678,-6.119 -7.156,-7.222C-5.638,-8.325 -4.09,-9.244 -2.517,-9.981C-0.841,-10.809 0.68,-11.223 2.044,-11.223C3.405,-11.223 4.246,-10.809 4.561,-9.981C4.875,-9.519 5.241,-9.291 5.662,-9.291" style="fill-rule:nonzero;"/>
        </g>
        <g transform="matrix(1,0,0,1,415.6588,89.0236)">
            <path d="M0,0.67C0.762,0.415 -0.268,0.141 -1.141,-0.112L-1.891,0.782L0,0.67Z" style="fill-rule:nonzero;"/>
        </g>
        <g transform="matrix(-0.636677,-0.771131,-0.771131,0.636677,410.167979,90.622167)">
            <path d="M0.007,-1.603C0.198,-0.847 0.431,-0.117 0.647,0.63L0.007,-0.845C-1.399,-1.928 -0.611,-0.066 -0.31,0.535C-1.906,-1.815 -0.107,-0.935 0.007,-1.603" style="fill-rule:nonzero;"/>
        </g>
        <g transform="matrix(1,0,0,1,407.1891,90.9883)">
            <path d="M0,-0.652C-1.377,-0.711 -0.998,-0.124 -0.418,0.059C-0.324,-0.193 0.579,-0.47 0,-0.652" style="fill-rule:nonzero;"/>
        </g>
        <g transform="matrix(1,0,0,1,326.3079,67.4885)">
            <path d="M0,-0.694C0.304,-0.42 0.687,-0.153 0.559,-0.032C1.021,0 1.171,-0.095 0,-0.694" style="fill-rule:nonzero;"/>
        </g>
        <g transform="matrix(1,0,0,1,326.867,67.4745)">
            <path d="M0,-0.018C-0.09,-0.026 -0.188,-0.034 -0.297,-0.044C-0.211,-0.02 -0.144,-0.002 -0.041,0.026C-0.009,0.017 -0.015,-0.004 0,-0.018" style="fill-rule:nonzero;"/>
        </g>
        <g transform="matrix(1,0,0,1,349.6913,66.1511)">
            <path d="M0,19.027C1.644,19.16 2.396,19.716 3.891,19.996L4.465,20.949C6.094,21.228 5.341,20.587 6.58,20.593C7.863,21.476 10.998,21.938 11.661,22.173C12.041,22.633 10.951,22.449 10.666,22.577C12.572,22.88 12.633,22.138 14.921,22.744L14.91,22.945C20.633,23.371 27.573,25.072 33.87,25.293C33.456,25.195 33.584,25.06 33.443,24.892C39.979,25.61 47.6,26.157 52.803,24.572C51.04,24.651 48.687,24.232 46.327,24.01C43.969,23.701 41.599,23.576 39.749,23.985C38.49,23.318 36.364,23.849 35.916,23.023C33.411,22.507 31.599,22.508 29.804,22.468C28.005,22.466 26.215,22.477 23.794,21.979C23.127,21.71 23.537,21.429 23.408,21.052L27.291,21.477L25.024,20.728C26.086,20.632 28.493,21.317 28.889,20.704C27.152,20.831 24.993,20.396 22.876,20.041C20.769,19.633 18.715,19.235 17.164,19.329C18.477,19.828 20.223,20.016 21.815,20.451C22.469,20.851 23.543,21.22 23.398,21.556C18.54,21.559 14.803,20.136 10.035,19.053C8.835,18.786 7.253,18.261 7.169,17.856C7.97,17.987 7.476,17.536 8.154,17.569C6.421,17.327 7.616,18.715 5.27,17.807L5.948,16.761C4.604,17.661 3.111,15.617 1.204,15.697C0.764,15.027 1.967,15.162 3.26,15.59C1.873,14.869 1.509,15.483 0.348,15.047L1.797,14.475C0.232,14.954 -0.355,13.505 -0.928,12.941C-1.099,13.143 -0.729,14.128 -2.243,13.47C-2.855,13.09 -2.424,12.98 -2.526,12.784C-2.701,12.987 -3.421,13.201 -4.447,12.828C-4.504,12.437 -3.582,12.612 -3.388,12.311C-4.156,12.031 -4.803,11.85 -5.247,11.37C-6.689,11.075 -5.349,11.868 -6.307,11.867C-8.26,10.766 -6.052,10.68 -6.521,9.688C-4.815,9.912 -2.766,10.514 -1.847,10.59L-4.901,9.689C-4.573,9.389 -6.6,8.209 -4.919,8.502C-7.667,6.953 -11.306,5.825 -14.205,4.795C-13.874,5.106 -13.406,5.42 -13.596,5.611C-15.127,5.151 -14.753,4.771 -14.921,4.37C-16.096,4.123 -16.279,4.804 -17.15,4.961C-19.086,3.392 -19.546,3.566 -21.062,1.919L-21.241,2.603C-22.338,1.476 -22.969,2.332 -24.243,1.308C-24.261,1.135 -23.634,1.225 -23.121,1.28C-24.499,0.908 -24.058,0.205 -25.428,-0.111L-24.113,-0.37C-25.121,-0.805 -26.713,-1.222 -25.923,-1.605C-28,-1.658 -31.032,-3.246 -33.498,-3.618L-33.143,-4.131C-34.551,-3.902 -37.572,-5.643 -38.883,-5.079L-38.997,-5.366C-39.874,-5.349 -40.769,-5.252 -41.638,-5.194C-42.724,-5.53 -42.164,-6.314 -42.305,-6.093C-44.823,-6.436 -46.75,-6.698 -48.388,-7.13C-48.886,-6.385 -51.543,-6.358 -53.634,-6.127C-58.699,-6.174 -63.979,-4.859 -68.535,-2.366C-70.818,-1.124 -72.867,0.479 -74.641,2.234C-76.401,4.023 -77.753,6.075 -78.789,8.125C-79.095,8.742 -79.271,9.579 -79.408,10.435C-79.474,11.325 -79.461,12.248 -79.567,13.052C-78.676,11.289 -79.052,10.941 -78.106,9.214C-77.701,8.597 -77.139,8.357 -76.647,8.134C-76.124,7.931 -75.659,7.742 -75.065,7.462C-75.377,7.469 -75.686,7.486 -75.976,7.526C-75.185,5.691 -74.89,6.741 -74.367,5.153L-73.627,5.965C-73.633,5.227 -72.393,4.597 -71.777,4.52L-71.869,3.63C-70.681,3.193 -69.927,2.932 -69.246,3.325L-69.724,2.804C-69.171,2.848 -65.775,0.494 -66.479,2.212C-66.263,1.906 -66.135,1.449 -65.407,1.233L-65.025,1.824C-64.146,1.211 -63.043,0.707 -62.628,0.981C-63.117,1.325 -63.193,1.673 -63.261,2.018C-61.191,1.348 -61.105,0.785 -61.094,0.168C-61.077,-0.423 -61.153,-1.118 -59.106,-1.587L-59.062,-1.136L-58.114,-1.806C-57.716,-1.694 -57.324,-1.578 -56.931,-1.424C-56.303,-2.283 -54.806,-2.446 -53.201,-2.37C-51.588,-2.304 -49.901,-2.026 -48.609,-2.3C-48.108,-2.336 -47.548,-2.066 -46.885,-1.761C-46.222,-1.467 -45.461,-1.157 -44.516,-1.009L-44.509,-1.714C-43.805,-1.234 -42.072,-0.569 -40.43,0.302C-38.785,1.159 -37.238,2.23 -36.826,3.212C-35.289,3.192 -36.921,3.024 -36.714,2.514C-33.79,2.78 -33.976,3.915 -32.745,4.825C-30.982,5.161 -33.897,4.081 -32.826,3.949C-30.515,5.458 -30.452,3.977 -27.517,5.767C-27.367,6.258 -28.431,5.66 -28.854,5.759C-26.381,6.053 -22.48,8.364 -19.121,9.814C-15.589,12.068 -9.909,14.893 -5.438,17.294L-5.259,17.094C-3.554,18.485 -1.204,18.688 1.002,19.779L0,19.027Z" style="fill-rule:nonzero;"/>
        </g>
        <g transform="matrix(1,0,0,1,379.7753,85.628)">
            <path d="M0,0.646L-0.278,0L-2.53,0.024C-1.73,0.645 -1.198,0.319 0,0.646" style="fill-rule:nonzero;"/>
        </g>
        <g transform="matrix(1,0,0,1,378.9967,87.6217)">
            <path d="M0,0.352L1.201,0.275L-0.673,0L0,0.352Z" style="fill-rule:nonzero;"/>
        </g>
        <g transform="matrix(1,0,0,1,351.8727,80.9759)">
            <path d="M0,-1.063L0.241,-0.878C1.624,-0.541 3.029,-0.28 4.423,0C2.946,-0.335 1.463,-0.665 0,-1.063" style="fill-rule:nonzero;"/>
        </g>
        <g transform="matrix(1,0,0,1,326.703,66.4692)">
            <path d="M0,-0.156C0.584,-0.237 1.168,0.184 1.722,0.207L-0.228,-0.363L0,-0.156Z" style="fill-rule:nonzero;"/>
        </g>
        <g transform="matrix(1,0,0,1,308.5788,57.8396)">
            <path d="M0,-0.594C-1.029,0.258 -1.603,-0.929 -0.734,0.223C0.554,0.335 -0.438,-0.328 0,-0.594" style="fill-rule:nonzero;"/>
        </g>
        <g transform="matrix(1,0,0,1,303.5174,57.3841)">
            <path d="M0,0.533C0.725,0.67 1.154,0.572 1.582,0.473C0.687,-0.137 0.566,0.401 0,0.533" style="fill-rule:nonzero;"/>
        </g>
        <g transform="matrix(1,0,0,1,395.6039,91.8423)">
            <path d="M0,1.178C0.99,0.641 -0.429,0.131 -1.63,-0.323L-2.521,1.501L0,1.178Z" style="fill-rule:nonzero;"/>
        </g>
        <g transform="matrix(-0.806349,0.59144,0.59144,0.806349,390.206975,96.224199)">
            <path d="M-1.628,-2.77L1.769,-2.77L-0.462,-2.408C-1.938,-0.407 0.805,-0.951 1.732,-1.138C-1.728,0.506 -0.574,-2.227 -1.628,-2.77" style="fill-rule:nonzero;"/>
        </g>
        <g transform="matrix(1,0,0,1,384.3312,96.2327)">
            <path d="M0,-1.424C-1.851,-1.447 -1.278,-0.302 -0.478,0.023C-0.381,-0.486 0.797,-1.1 0,-1.424" style="fill-rule:nonzero;"/>
        </g>
        <g transform="matrix(1,0,0,1,271.6269,77.1055)">
            <path d="M0,-0.887C0.487,-0.566 1.077,-0.308 0.942,0C1.574,-0.249 1.741,-0.508 0,-0.887" style="fill-rule:nonzero;"/>
        </g>
        <g transform="matrix(1,0,0,1,272.5693,77.2494)">
            <path d="M0,-0.144C-0.122,-0.101 -0.254,-0.054 -0.405,0C-0.283,-0.01 -0.183,-0.007 -0.042,-0.034C-0.001,-0.072 -0.017,-0.107 0,-0.144" style="fill-rule:nonzero;"/>
        </g>
        <g transform="matrix(1,0,0,1,306.4234,78.0124)">
            <path d="M0,20.185C2.228,19.75 3.292,20.517 5.319,20.543L6.143,22.182C8.373,22.122 7.32,21.154 9.009,20.708C10.79,21.986 15.09,21.872 16.016,22.084C16.556,22.858 15.056,22.863 14.67,23.212C17.294,23.164 17.339,21.746 20.495,22.221L20.489,22.619C28.325,21.709 37.826,23.289 46.33,22.43C45.765,22.323 45.926,22.026 45.724,21.722C54.578,21.759 64.866,21.713 71.665,18.02C66.925,18.574 58.989,16.311 54.124,18.702C52.379,17.613 49.573,18.996 48.903,17.496C42.113,16.494 39.137,18.848 32.509,18.214C31.592,17.853 32.13,17.19 31.933,16.479C33.693,16.422 35.446,16.401 37.2,16.31C36.162,16.031 35.127,15.729 34.095,15.424C35.523,14.941 38.809,15.689 39.297,14.422C34.635,15.626 27.563,13.584 23.388,14.815C25.196,15.402 27.563,15.336 29.747,15.704C30.657,16.288 32.123,16.795 31.949,17.478C25.375,18.791 20.221,17.035 13.658,16.543C12.013,16.407 9.834,15.901 9.7,15.168C10.8,15.132 10.108,14.421 11.036,14.253C8.653,14.409 10.347,16.675 7.1,15.776L7.979,13.49C6.184,15.743 4.055,12.269 1.437,13.251C0.795,12.132 2.445,11.909 4.248,12.196C2.3,11.381 1.841,12.709 0.226,12.344L2.173,10.644C0.058,12.215 -0.837,9.64 -1.673,8.789C-1.891,9.256 -1.303,10.975 -3.437,10.41C-4.31,9.961 -3.729,9.552 -3.887,9.222C-4.11,9.692 -5.075,10.435 -6.511,10.189C-6.63,9.463 -5.353,9.377 -5.116,8.708C-6.197,8.523 -7.1,8.471 -7.761,7.752C-9.777,7.914 -7.842,8.747 -9.155,9.234C-11.969,8.145 -8.958,6.841 -9.735,5.19C-7.335,4.69 -4.446,4.982 -3.16,4.695L-7.488,4.361C-7.066,3.624 -10.06,2.407 -7.67,2.108C-11.723,0.502 -17.033,0.324 -21.243,0.185C-20.717,0.571 -20.006,0.882 -20.223,1.357C-22.418,1.413 -22.001,0.483 -22.327,-0.175C-23.998,0.082 -24.075,1.482 -25.216,2.32C-28.239,0.599 -28.807,1.216 -31.31,-0.896L-31.357,0.505C-33.145,-0.925 -33.753,1.129 -35.745,0.008C-35.821,-0.305 -34.96,-0.538 -34.259,-0.763C-36.205,-0.582 -35.828,-2.19 -37.753,-1.891L-36.074,-3.236C-37.566,-3.376 -39.801,-3.178 -38.872,-4.395C-41.662,-3.152 -46.177,-4.251 -49.522,-3.523L-49.227,-4.711C-51.002,-3.383 -55.498,-5.112 -57.015,-3.348L-57.259,-3.841C-58.395,-3.31 -59.517,-2.8 -60.629,-2.226C-62.148,-2.341 -61.673,-4.164 -61.784,-3.658C-65.148,-3.276 -67.763,-2.996 -69.99,-3.426C-70.403,-1.783 -73.853,-1.024 -76.579,-0.378C-83.311,0.107 -90.214,2.042 -96.436,5.087C-98.001,5.856 -99.471,6.679 -100.986,7.582C-102.512,8.538 -103.918,9.607 -105.171,10.815C-107.647,13.213 -109.744,16.072 -110.464,19.246C-110.659,19.679 -110.624,20.249 -110.599,20.797C-110.492,21.362 -110.358,21.945 -110.066,22.499C-109.576,23.63 -108.612,24.559 -107.929,25.297C-108.152,24.22 -108.35,23.659 -108.537,23.045C-108.706,22.452 -108.924,21.75 -108.602,20.682C-108.157,19.933 -107.428,19.624 -106.65,19.475C-105.904,19.318 -105.054,19.313 -104.29,19.129C-104.799,19.017 -105.259,18.934 -105.773,18.866C-105.611,17.659 -105.14,17.446 -104.828,17.301C-104.462,17.158 -104.268,17.029 -104.031,15.887L-102.584,17.544C-102.935,16.279 -101.032,15.96 -100.206,16.085C-100.348,15.553 -100.461,15.031 -100.57,14.496C-98.872,14.361 -97.869,14.287 -96.902,15.335L-97.639,14.149C-97.295,14.427 -95.798,13.754 -94.634,13.386C-93.448,12.996 -92.45,13.036 -92.894,14.458C-92.587,14.001 -92.455,13.181 -91.445,12.959L-90.813,14.203C-89.607,13.325 -88.107,12.614 -87.484,13.206C-88.124,13.77 -88.176,14.43 -88.219,15.088C-85.368,14.234 -85.34,13.144 -85.445,11.919C-85.533,10.742 -85.751,9.441 -83,8.711L-82.85,9.602L-81.675,8.34C-81.102,8.589 -80.535,8.845 -79.965,9.13C-79.282,7.434 -77.279,7.084 -75.081,7.033C-73.988,6.972 -72.837,7.023 -71.763,6.934C-70.691,6.833 -69.686,6.643 -68.853,6.176C-67.5,5.79 -65.592,7.506 -63.041,7.193L-63.256,5.812C-62.176,6.505 -59.694,6.99 -57.264,7.847C-54.834,8.677 -52.472,9.813 -51.613,11.481C-49.628,10.529 -51.797,11.178 -51.696,10.083C-47.815,8.863 -47.692,11.113 -45.813,12.085C-43.429,11.613 -47.536,11.396 -46.193,10.473C-42.73,11.884 -43.11,9.033 -38.747,10.524C-38.409,11.354 -39.969,10.916 -40.492,11.369C-37.183,10.331 -31.431,12.089 -26.686,12.683C-21.485,14.618 -13.597,16.651 -7.43,19.232L-7.208,18.764C-4.809,20.591 -1.648,20.014 1.394,21.224L0,20.185Z" style="fill-rule:nonzero;"/>
        </g>
        <g transform="matrix(1,0,0,1,347.2859,90.1811)">
            <path d="M0,0.831L-0.418,-0.384L-3.435,0.161C-2.322,1.215 -1.629,0.457 0,0.831" style="fill-rule:nonzero;"/>
        </g>
        <g transform="matrix(1,0,0,1,346.3554,94.0128)">
            <path d="M0,0.55L1.611,0.112C0.764,0.087 -0.083,0.048 -0.929,0L0,0.55Z" style="fill-rule:nonzero;"/>
        </g>
        <g transform="matrix(1,0,0,1,309.0788,87.4957)">
            <path d="M0,-0.376L0.343,-0.117L6.133,0L0,-0.376Z" style="fill-rule:nonzero;"/>
        </g>
        <g transform="matrix(1,0,0,1,272.0125,74.5387)">
            <path d="M0,0.52C0.754,0 1.674,0.396 2.428,0.084L-0.366,0.276L0,0.52Z" style="fill-rule:nonzero;"/>
        </g>
        <g transform="matrix(1,0,0,1,245.2801,70.4841)">
            <path d="M0,-2.154C-1.058,0 -2.172,-2.138 -0.688,-0.222C1.016,-0.611 -0.481,-1.429 0,-2.154" style="fill-rule:nonzero;"/>
        </g>
        <g transform="matrix(1,0,0,1,238.9545,70.1431)">
            <path d="M0,1.542C0.98,1.558 1.504,1.214 2.027,0.87C0.681,-0.016 0.692,1.084 0,1.542" style="fill-rule:nonzero;"/>
        </g>
        <g transform="matrix(1,0,0,1,222.5503,164.4189)">
            <path d="M0,-5.478C0.456,-5.878 1.072,-6.17 1.848,-6.352C2.622,-6.533 3.072,-6.456 3.192,-6.119C3.237,-5.992 3.102,-5.694 2.791,-5.226C2.478,-4.758 2.095,-4.228 1.647,-3.64C1.196,-3.05 0.694,-2.443 0.138,-1.816C-0.421,-1.188 -0.919,-0.653 -1.36,-0.21C-2.367,0.674 -2.892,1.055 -3.058,0.591C-3.118,0.422 -3.094,-0.101 -2.863,-0.637C-2.635,-1.17 -2.358,-1.745 -2.038,-2.359C-1.716,-2.973 -1.363,-3.574 -0.972,-4.167C-0.584,-4.758 -0.259,-5.195 0,-5.478" style="fill:rgb(29,29,27);fill-rule:nonzero;"/>
        </g>
    </g>
</svg>
